<?xml version="1.0" encoding="UTF-8"?>
<svg version="1.1" xmlns="http://www.w3.org/2000/svg" width="1200" height="1060">
<path d="M0 0 C11.38084411 9.2721726 22.44426472 18.82873893 33.15844727 28.86450195 C34.5670354 30.16689059 35.98888328 31.45497105 37.41772461 32.73510742 C46.818319 41.20565445 55.7377208 50.14867776 64.6730957 59.10522461 C67.38314396 61.82066014 70.09853249 64.53067364 72.81445312 67.24023438 C74.56021676 68.98665842 76.30567037 70.73339244 78.05078125 72.48046875 C78.85195877 73.27962204 79.65313629 74.07877533 80.47859192 74.90214539 C84.6456421 79.08644314 88.66408479 83.34183272 92.50627136 87.82722473 C95.26413875 91.01314848 98.17291588 94.058968 101.0625 97.125 C105.82902725 102.21099791 110.53756833 107.32158546 115.0625 112.625 C115.94896428 113.65777056 116.83571035 114.69029928 117.72265625 115.72265625 C119.77900221 118.11727264 121.83183468 120.51484739 123.8828125 122.9140625 C125.95220698 125.3332138 128.03027307 127.74438733 130.1171875 130.1484375 C135.58038913 136.45492244 140.873285 142.84916023 145.98632812 149.44311523 C149.10157316 153.44642923 152.32331391 157.33698329 155.625 161.1875 C160.52089195 166.91215282 165.14877197 172.81850819 169.6953125 178.82373047 C171.1757853 180.77425339 172.66513464 182.71775814 174.15625 184.66015625 C189.71580332 204.9333802 204.82275089 225.49627044 219.50585938 246.41357422 C221.10679496 248.68792719 222.71688145 250.95559662 224.328125 253.22265625 C233.93748701 266.78710371 243.06186638 280.65200424 252.0625 294.625 C252.60616211 295.46885254 253.14982422 296.31270508 253.70996094 297.18212891 C267.86912304 319.23154627 281.39075364 341.6889468 294.0625 364.625 C294.65144043 365.68396484 295.24038086 366.74292969 295.84716797 367.83398438 C297.65704305 371.09281821 299.45543424 374.35771453 301.25 377.625 C302.07999512 379.12111816 302.07999512 379.12111816 302.92675781 380.64746094 C305.61755048 385.58762774 307.81810796 390.12829897 309.0625 395.625 C309.7225 395.625 310.3825 395.625 311.0625 395.625 C311.2174292 395.09132813 311.3723584 394.55765625 311.53198242 394.0078125 C313.46186448 387.76959184 316.18177031 382.3046926 319.375 376.625 C319.89916504 375.68003662 320.42333008 374.73507324 320.96337891 373.76147461 C322.08272207 371.74649207 323.20553111 369.73343152 324.33154297 367.72216797 C326.05695802 364.63491617 327.766294 361.5392227 329.47265625 358.44140625 C337.30474347 344.27175249 345.50145654 330.36579328 354.0625 316.625 C354.58682617 315.78066406 355.11115234 314.93632812 355.65136719 314.06640625 C371.62603748 288.41890805 388.4669201 263.18747089 406.0625 238.625 C406.59311035 237.88266113 407.1237207 237.14032227 407.67041016 236.37548828 C411.44184061 231.10632893 415.24450766 225.86049112 419.0625 220.625 C419.62437012 219.8530127 420.18624023 219.08102539 420.76513672 218.28564453 C428.21133964 208.06680752 435.8182684 197.99501063 443.6171875 188.04296875 C446.48324907 184.38149822 449.30164932 180.68628295 452.10839844 176.97924805 C457.40722436 169.9853337 462.86441795 163.19015196 468.58203125 156.53515625 C470.7970532 153.93642971 472.94382679 151.30234972 475.0625 148.625 C479.9197967 142.50401635 484.99120559 136.56828925 490.0625 130.625 C490.81418457 129.74158936 490.81418457 129.74158936 491.58105469 128.84033203 C497.3212739 122.09475338 503.10571914 115.40362613 509.05859375 108.84375 C510.87561982 106.83191607 512.66194392 104.79839566 514.4375 102.75 C518.21866975 98.41252021 522.10693283 94.17530216 526.00830078 89.94628906 C527.86333686 87.93312489 529.70726026 85.91183589 531.54321289 83.88110352 C540.27747444 74.27822337 549.42975241 65.10555528 558.61816406 55.93896484 C561.32473325 53.23779114 564.02586896 50.53126571 566.7265625 47.82421875 C568.4684292 46.08301235 570.2106058 44.34211591 571.953125 42.6015625 C572.74914124 41.80352203 573.54515747 41.00548157 574.36529541 40.18325806 C578.55775142 36.00815649 582.82436898 31.98474606 587.31651306 28.13287354 C590.07559793 25.75006587 592.71633394 23.24344297 595.375 20.75 C600.11749316 16.34273789 604.96299655 12.13435609 610.015625 8.08203125 C612.31778658 6.22554454 614.59432341 4.35004376 616.859375 2.44921875 C639.94729083 -16.88547562 664.69974163 -33.8066959 691.0625 -48.375 C691.82981445 -48.80119629 692.59712891 -49.22739258 693.38769531 -49.66650391 C720.43452543 -64.59025589 750.3510819 -76.84485056 781.0625 -81.375 C782.92068359 -81.65923828 782.92068359 -81.65923828 784.81640625 -81.94921875 C810.52856193 -85.00522349 835.86984488 -81.61630921 856.65234375 -65.34765625 C871.15038479 -52.99416366 879.04305636 -37.09136858 884.375 -19.125 C884.60533936 -18.36582275 884.83567871 -17.60664551 885.07299805 -16.82446289 C889.56445525 -0.60412147 890.67520604 16.3123989 890.625 33.0625 C890.62484894 34.05920715 890.62469788 35.05591431 890.62454224 36.08282471 C890.52099551 72.38275075 887.14129889 108.66953524 884.28318787 144.83252716 C884.06518043 147.59108322 883.8480345 150.34970611 883.63098145 153.1083374 C866.92962365 364.98526308 866.92962365 364.98526308 792.671875 484.453125 C748.87975337 520.90285498 696.27286014 538.41353848 640.0625 544.625 C639.11205811 544.73102539 638.16161621 544.83705078 637.18237305 544.94628906 C626.78695012 545.92212609 616.34650308 545.7756204 605.91577148 545.75537109 C602.6358578 545.75001772 599.35608137 545.75533904 596.07617188 545.76171875 C585.36031897 545.7647645 574.73704749 545.66555209 564.0625 544.625 C564.84334961 544.80450195 565.62419922 544.98400391 566.42871094 545.16894531 C621.08529362 557.89415143 678.05463153 576.84524383 719.51171875 616.25 C722.01806752 618.64481319 722.01806752 618.64481319 724.69140625 620.71875 C746.26506696 638.06297805 760.43379833 669.65020759 763.546875 696.52319336 C768.22179262 743.27798841 746.44276324 785.95951135 718.0625 821.625 C715.61821851 824.54397736 713.06728266 827.34806364 710.44140625 830.10546875 C708.58720291 832.06928017 706.83587833 834.05600726 705.0859375 836.109375 C700.26977286 841.63990828 695.05806051 846.77886055 689.86547852 851.95239258 C688.128564 853.683947 686.39706111 855.42078359 684.66601562 857.15820312 C678.96743994 862.86045538 673.23053074 868.42580755 667.0625 873.625 C666.09828125 874.470625 665.1340625 875.31625 664.140625 876.1875 C620.80934457 913.53379695 570.7405157 942.19786915 512.0625 939.625 C496.42225744 938.3405634 481.03529316 933.69788567 467.0625 926.625 C466.4864502 926.33753906 465.91040039 926.05007813 465.31689453 925.75390625 C456.65302205 921.40505279 448.69924895 916.64495976 441.0625 910.625 C440.18335938 909.93792969 439.30421875 909.25085938 438.3984375 908.54296875 C412.06469868 887.48356667 390.72124971 860.87294937 374.0625 831.625 C373.3530082 830.39835442 372.64337139 829.17179271 371.93359375 827.9453125 C351.08163929 791.63981593 335.09366416 753.5138194 321.27685547 714.07373047 C319.1954981 708.1627425 317.06514748 702.2694498 314.9375 696.375 C314.18484909 694.28647518 313.4322401 692.19793525 312.6796875 690.109375 C312.14067969 688.61456361 311.60164033 687.1197636 311.0625 685.625 C310.4025 685.625 309.7425 685.625 309.0625 685.625 C308.87617004 686.15972931 308.68984009 686.69445862 308.49786377 687.24539185 C284.31974396 756.57817027 258.30860922 826.72544592 209.0625 882.625 C208.6102002 883.14046387 208.15790039 883.65592773 207.69189453 884.18701172 C182.04383958 913.25844922 147.54282706 936.23120304 108.0625 939.625 C46.58595994 942.52330011 -5.58706645 910.57595484 -49.9375 870.625 C-50.91589844 869.75746094 -51.89429688 868.88992188 -52.90234375 867.99609375 C-60.01623688 861.61548245 -66.80201125 854.88689829 -73.58206177 848.15567017 C-74.63479709 847.11097939 -75.68900799 846.067773 -76.74484253 845.0262146 C-83.62336167 838.23092828 -89.91528086 831.20583312 -95.9375 823.625 C-97.43387704 821.83030638 -98.93348311 820.03829601 -100.4375 818.25 C-127.20007754 785.44725739 -147.82445 742.50616713 -143.71484375 699.28320312 C-139.39514061 662.01815846 -119.15265041 630.80933325 -90.0703125 607.484375 C-47.85310608 574.42770392 3.49060038 556.95885491 55.0625 544.625 C54.39597412 544.69428711 53.72944824 544.76357422 53.04272461 544.83496094 C-24.29220274 551.87280875 -107.64657994 537.6512498 -168.73974609 487.13476562 C-179.2677692 478.35085103 -188.34108601 469.34435449 -196.9375 458.625 C-197.58589844 457.85542969 -198.23429687 457.08585938 -198.90234375 456.29296875 C-214.85130838 437.1476881 -225.60173644 414.94398327 -233.9375 391.625 C-234.38053467 390.39040039 -234.38053467 390.39040039 -234.83251953 389.13085938 C-264.12970669 305.40485666 -260.19851524 198.72277344 -268.375 86.5625 C-268.45285736 85.43138794 -268.53071472 84.30027588 -268.6109314 83.1348877 C-269.41343963 71.36418334 -270.07188815 59.5932017 -270.55078125 47.8046875 C-270.59464462 46.75937363 -270.638508 45.71405975 -270.68370056 44.6370697 C-272.0129374 9.223555 -267.97554111 -32.10223391 -242.9375 -59.375 C-177.66396188 -127.49642372 -55.07511936 -44.59747797 0 0 Z " fill="#1085FE" transform="translate(289.9375,101.375)"/>
</svg>
