<?xml version="1.0" encoding="UTF-8"?>
<svg version="1.1" xmlns="http://www.w3.org/2000/svg" width="512" height="512">
<path d="M0 0 C54.45 0 108.9 0 165 0 C165 37.29 165 74.58 165 113 C182.82 113 200.64 113 219 113 C219 94.19 219 75.38 219 56 C236.82 56 254.64 56 273 56 C273 37.52 273 19.04 273 0 C327.78 0 382.56 0 439 0 C439 56.43 439 112.86 439 171 C420.85 171 402.7 171 384 171 C384 189.81 384 208.62 384 228 C365.85 228 347.7 228 329 228 C329 246.48 329 264.96 329 284 C347.15 284 365.3 284 384 284 C384 302.81 384 321.62 384 341 C402.15 341 420.3 341 439 341 C439 397.43 439 453.86 439 512 C384.22 512 329.44 512 273 512 C273 493.52 273 475.04 273 456 C255.18 456 237.36 456 219 456 C219 437.19 219 418.38 219 399 C201.18 399 183.36 399 165 399 C165 436.29 165 473.58 165 512 C110.55 512 56.1 512 0 512 C0 343.04 0 174.08 0 0 Z " fill="#53FC18" transform="translate(37,0)"/>
</svg>
