<?xml version="1.0" encoding="UTF-8"?>
<svg version="1.1" xmlns="http://www.w3.org/2000/svg" width="512" height="512">
<path d="M0 0 C168.96 0 337.92 0 512 0 C512 168.96 512 337.92 512 512 C343.04 512 174.08 512 0 512 C0 343.04 0 174.08 0 0 Z " fill="#F56343" transform="translate(0,0)"/>
<path d="M0 0 C25.01914445 20.38732033 31.40125647 60.0678896 38.43701172 89.91772461 C38.67405067 90.90805695 38.67405067 90.90805695 38.9158783 91.918396 C39.34366971 93.70940421 39.76283071 95.50246758 40.18139648 97.2956543 C40.80358256 100.11819562 40.80358256 100.11819562 43 102 C51.45040566 103.56623898 59.32073437 100.04121912 66.1875 95.375 C80.3242346 83.94045813 84.858135 63.02073858 90.24731445 46.44702148 C100.29188726 15.66487512 100.29188726 15.66487512 114.375 7.0625 C122.73340546 3.20280818 133.90368821 3.47320045 142.5 6.5625 C153.01159219 11.69315809 159.29630751 18.74918833 163.375 29.6875 C169.12142888 58.88874063 154.84204146 90.34309517 139.21533203 114.21923828 C133.3475046 122.81705534 126.57485123 130.70076299 119.484375 138.3046875 C117.49383108 140.46423986 115.55221072 142.647952 113.625 144.86328125 C110.23725913 148.74798787 106.77364144 152.5508933 103.25 156.3125 C102.62528809 156.98039551 102.00057617 157.64829102 101.35693359 158.33642578 C95.07999955 164.99850406 88.60202713 171.4556497 82.08300781 177.88012695 C81.30538086 178.64929443 80.52775391 179.41846191 79.7265625 180.2109375 C79.03127441 180.89462402 78.33598633 181.57831055 77.61962891 182.28271484 C74.38612622 185.71118302 74.65395306 188.94878743 74.73828125 193.4765625 C75.23681471 198.28331791 77.5555741 200.76907501 81.140625 203.82421875 C82.84711177 205.1899448 84.56669237 206.53942042 86.296875 207.875 C90.732183 211.36171611 94.84098168 215.19218767 99 219 C99.98355469 219.87914062 100.96710938 220.75828125 101.98046875 221.6640625 C110.9215712 229.67836069 118.78987383 238.24653563 126.125 247.75 C126.60388672 248.35674561 127.08277344 248.96349121 127.57617188 249.58862305 C136.9011855 261.93663308 141.77605497 276.78189788 146.9375 291.1875 C147.46167007 292.63842041 147.46167007 292.63842041 147.99642944 294.11865234 C169.55204404 353.83825535 169.55204404 353.83825535 164.79296875 366.11328125 C157.66935304 380.8835123 146.78888707 387.81022132 131.63671875 393.1953125 C119.70926204 396.85938621 105.8870429 398.81269566 94.1875 393.5 C86.91283228 389.16161576 82.91045934 383.52253804 80.5859375 375.44140625 C78.86762919 368.2817883 77.96835978 361.33919756 77.76318359 353.9855957 C77.14433873 333.15048666 71.29471942 309.33134705 55.625 294.5625 C48.10262194 288.28742223 40.36557455 286.06073168 30.75 285.4375 C28.85507812 285.31181641 28.85507812 285.31181641 26.921875 285.18359375 C25.95765625 285.12300781 24.9934375 285.06242187 24 285 C24.16081055 285.49048828 24.32162109 285.98097656 24.48730469 286.48632812 C25.21462723 290.05228664 25.18240566 293.59421759 25.203125 297.21875 C25.21013931 298.02504852 25.21715363 298.83134705 25.22438049 299.66207886 C25.24192642 302.27477558 25.24823951 304.88724639 25.25 307.5 C25.25067474 308.38681458 25.25134949 309.27362915 25.25204468 310.18731689 C25.23649883 322.99448257 25.01342861 335.48765641 22 348 C21.82839355 348.7321875 21.65678711 349.464375 21.47998047 350.21875 C17.0062627 368.64135185 8.97323918 385.80621256 -7.67236328 396.02685547 C-33.75726413 411.7871953 -68.33007475 424.13976402 -99.0625 417.8125 C-110.77728929 414.59464016 -121.51338812 408.40691329 -127.875 397.6875 C-128.62091186 396.14258646 -129.32821804 394.5785599 -130 393 C-130.39058594 392.14148438 -130.78117187 391.28296875 -131.18359375 390.3984375 C-135.02819919 380.74036294 -136.35082573 367.79431449 -132.5 357.875 C-127.26548881 348.57325538 -119.14783196 343.3457115 -109.04785156 340.43798828 C-102.89899783 338.89733897 -96.93795015 338.72746776 -90.625 338.625 C-77.54503731 338.21369345 -68.1110359 335.79337131 -58.50390625 326.5625 C-52.45733593 319.95971698 -51.6682674 313.19445583 -51.50390625 304.63671875 C-52.73688977 295.59807575 -57.0140532 287.60863797 -61.4375 279.75 C-61.95900635 278.810354 -62.4805127 277.87070801 -63.01782227 276.90258789 C-64.1173419 274.92587736 -65.22083158 272.95137031 -66.328125 270.97900391 C-67.96771363 268.05752896 -69.59410672 265.12902516 -71.21875 262.19921875 C-74.42777344 256.43613428 -77.69306272 250.70742888 -81 245 C-81.58023926 243.99759277 -82.16047852 242.99518555 -82.75830078 241.96240234 C-84.4850315 239.00385164 -86.23726772 236.06221475 -88 233.125 C-88.52779053 232.22064209 -89.05558105 231.31628418 -89.59936523 230.38452148 C-90.10282471 229.55895752 -90.60628418 228.73339355 -91.125 227.8828125 C-91.56070313 227.15465332 -91.99640625 226.42649414 -92.4453125 225.67626953 C-94.53474004 223.42344141 -95.96784651 223.21143248 -99 223 C-101.16471628 223.37923361 -101.16471628 223.37923361 -103.2734375 224.23046875 C-104.08675537 224.53259277 -104.90007324 224.8347168 -105.73803711 225.14599609 C-106.60823486 225.48969238 -107.47843262 225.83338867 -108.375 226.1875 C-109.28967041 226.54408691 -110.20434082 226.90067383 -111.14672852 227.26806641 C-126.92275647 233.60842784 -141.79748371 241.50313558 -155.34765625 251.7734375 C-193.20981796 279.87915565 -193.20981796 279.87915565 -214 277 C-222.10846986 274.30974798 -229.10199454 269.10720962 -233.34765625 261.625 C-238.18727667 251.07844368 -239.13158959 237.34959658 -235.09375 226.3203125 C-223.72351168 202.19916407 -199.84152533 190.87403404 -177.13818359 179.56591797 C-174.50472751 178.25185329 -171.88541915 176.914891 -169.26953125 175.56640625 C-157.23195035 169.49373654 -144.5860118 164.98766047 -131.91796875 160.42749023 C-131.17050385 160.156772 -130.42303894 159.88605377 -129.65292358 159.60713196 C-128.24288499 159.09736094 -126.83120663 158.59209392 -125.41763306 158.09220886 C-121.66009092 156.73331246 -118.39774684 155.08447424 -115 153 C-114.34 153 -113.68 153 -113 153 C-113.17539307 152.39454346 -113.35078613 151.78908691 -113.53149414 151.1652832 C-138.05319354 66.09794311 -138.05319354 66.09794311 -119.98046875 32.1875 C-116.87362729 27.18713978 -113.20421049 23.09641022 -109 19 C-108.35933594 18.32710937 -107.71867188 17.65421875 -107.05859375 16.9609375 C-81.66123193 -7.98911266 -30.51084916 -22.55716626 0 0 Z " fill="#FEFEFE" transform="translate(275,58)"/>
<path d="M0 0 C12.92663663 9.61509376 19.43801264 30.55007011 22.05078125 45.85546875 C22.86264106 55.23930291 22.05603874 62.18287183 16.23828125 69.79296875 C5.31762868 81.60277675 -14.57528591 88.45415618 -29.94921875 91.85546875 C-30.93921875 92.08234375 -31.92921875 92.30921875 -32.94921875 92.54296875 C-44.22996758 93.71804675 -53.65698503 92.67585767 -62.76171875 85.35546875 C-72.75728066 75.69964866 -76.00167229 62.09564625 -76.29345703 48.65771484 C-76.30868408 47.20872803 -76.30868408 47.20872803 -76.32421875 45.73046875 C-76.3382373 44.81217285 -76.35225586 43.89387695 -76.36669922 42.94775391 C-76.28105454 30.69178007 -72.09307324 20.81768954 -63.984375 11.62890625 C-48.03719555 -3.75403407 -19.86095754 -11.66184481 0 0 Z " fill="#F24454" transform="translate(267.94921875,76.14453125)"/>
<path d="M0 0 C2.2477975 2.05233685 3.0022242 3.00667261 4 6 C6.81650243 10.22475364 9.8982685 10.47120456 14.69921875 11.5546875 C15.83810547 11.77511719 15.83810547 11.77511719 17 12 C13.78425284 14.55162546 10.95087809 15.83269511 7 17 C6.34 20.63 5.68 24.26 5 28 C4.34 28 3.68 28 3 28 C2.32845067 26.71086513 1.66291141 25.41859796 1 24.125 C0.62875 23.40570313 0.2575 22.68640625 -0.125 21.9453125 C-1 20 -1 20 -1 18 C-4.63 17.67 -8.26 17.34 -12 17 C-12 16.34 -12 15.68 -12 15 C-11.38511719 14.83886719 -10.77023437 14.67773438 -10.13671875 14.51171875 C-7.40195953 13.59140903 -5.33246376 12.71626323 -3 11 C-1.33571795 7.43001226 -0.58244375 3.88295836 0 0 Z " fill="#FEF6F4" transform="translate(423,191)"/>
<path d="M0 0 C4.16462504 9.07293313 5.19316032 15.42051905 2 25 C-0.8125 25.6875 -0.8125 25.6875 -4 26 C-5.69140625 24.9296875 -5.69140625 24.9296875 -7 23 C-7.2578125 19.93359375 -7.2578125 19.93359375 -7.125 16.4375 C-6.79595285 12.05867445 -6.79595285 12.05867445 -8 8 C-8.04022391 5.6670134 -8.04320247 3.33293334 -8 1 C-5.29120665 -0.35439668 -2.99066732 -0.06501451 0 0 Z " fill="#FEF7F8" transform="translate(276,113)"/>
<path d="M0 0 C3.92277665 1.58779055 5.93812699 4.21219344 7.625 8.0625 C7.4375 12 7.4375 12 6.625 15.0625 C4.645 15.3925 2.665 15.7225 0.625 16.0625 C-5.30496109 8.74888132 -5.30496109 8.74888132 -5.6875 5 C-5.584375 4.030625 -5.48125 3.06125 -5.375 2.0625 C-2.375 0.0625 -2.375 0.0625 0 0 Z " fill="#FEF5F7" transform="translate(261.375,84.9375)"/>
<path d="M0 0 C3.29714793 0.32971479 4.6226839 0.6226839 7 3 C6.625 6.125 6.625 6.125 6 9 C0.56559513 10.32841008 0.56559513 10.32841008 -1.9375 8.875 C-3 7 -3 7 -2.8125 4.4375 C-2 2 -2 2 0 0 Z " fill="#FEF7F5" transform="translate(387,255)"/>
<path d="M0 0 C2.5625 0.1875 2.5625 0.1875 4.5625 2.1875 C4.00694444 6.74305556 4.00694444 6.74305556 2.5625 8.1875 C0.125 8.375 0.125 8.375 -2.4375 8.1875 C-3.0975 7.5275 -3.7575 6.8675 -4.4375 6.1875 C-3.71780303 0.28598485 -3.71780303 0.28598485 0 0 Z " fill="#FEF6F6" transform="translate(77.4375,200.8125)"/>
<path d="M0 0 C2.93453261 0.36681658 3.86437246 0.86437246 6 3 C5.625 5.625 5.625 5.625 5 8 C2.6875 8.6875 2.6875 8.6875 0 9 C-1.875 7.8125 -1.875 7.8125 -3 6 C-2.72963853 3.02602384 -2.14553974 2.14553974 0 0 Z " fill="#FEF5F6" transform="translate(327,88)"/>
<path d="M0 0 C0.598125 0.20625 1.19625 0.4125 1.8125 0.625 C2.4375 3 2.4375 3 2.8125 5.625 C2.1525 6.285 1.4925 6.945 0.8125 7.625 C-1.8125 7.25 -1.8125 7.25 -4.1875 6.625 C-4.5175 4.975 -4.8475 3.325 -5.1875 1.625 C-2.1875 -0.375 -2.1875 -0.375 0 0 Z " fill="#F0284A" transform="translate(110.1875,113.375)"/>
<path d="M0 0 C3.69230769 0.69230769 3.69230769 0.69230769 5 2 C5.04063832 3.66617115 5.042721 5.33388095 5 7 C2.625 7.625 2.625 7.625 0 8 C-0.66 7.34 -1.32 6.68 -2 6 C-1.44444444 1.44444444 -1.44444444 1.44444444 0 0 Z " fill="#FEF7F1" transform="translate(311,423)"/>
<path d="M0 0 C1.65 0 3.3 0 5 0 C5 1.65 5 3.3 5 5 C3.125 5.625 3.125 5.625 1 6 C0.34 5.34 -0.32 4.68 -1 4 C-0.625 1.875 -0.625 1.875 0 0 Z " fill="#FEFBFA" transform="translate(121,344)"/>
<path d="M0 0 C1.32 0 2.64 0 4 0 C3.67 1.65 3.34 3.3 3 5 C1.68 4.34 0.36 3.68 -1 3 C-0.67 2.01 -0.34 1.02 0 0 Z " fill="#FDE8EB" transform="translate(107,115)"/>
<path d="M0 0 C2.97 0.33 5.94 0.66 9 1 C9 1.33 9 1.66 9 2 C6.03 2.66 3.06 3.32 0 4 C0 2.68 0 1.36 0 0 Z " fill="#F78442" transform="translate(299,343)"/>
</svg>
