<?xml version="1.0" encoding="UTF-8"?>
<svg version="1.1" xmlns="http://www.w3.org/2000/svg" width="512" height="512">
<path d="M0 0 C0.94259171 0.21472458 1.88518341 0.42944916 2.8563385 0.65068054 C5.94320406 1.35495755 9.02844464 2.06610669 12.11376953 2.77709961 C14.26836289 3.26944382 16.42307885 3.76125183 18.57791138 4.25254822 C24.22963824 5.54218818 29.88011362 6.83722 35.5302124 8.13397217 C44.59416082 10.21398977 53.65929032 12.28880099 62.72574234 14.35787773 C65.89228031 15.08182881 69.05784301 15.80993684 72.22335815 16.53834534 C74.1553775 16.98015837 76.08743322 17.42181243 78.01953125 17.86328125 C78.90162766 18.06742645 79.78372406 18.27157166 80.69255066 18.48190308 C81.9034864 18.75740242 81.9034864 18.75740242 83.1388855 19.03846741 C83.83974211 19.19940415 84.54059872 19.3603409 85.26269341 19.52615452 C87.29840753 19.9571054 87.29840753 19.9571054 90.12158203 19.86694336 C91.56947041 18.33585024 91.56947041 18.33585024 92.87158203 16.30444336 C99.77030136 6.76401931 107.70686142 0.86898564 119.18408203 -2.50805664 C132.99863657 -4.70084307 144.50309698 -1.67282158 155.98876953 6.13647461 C163.87247145 12.21568475 168.69049802 21.3565427 171.12158203 30.86694336 C171.34845703 31.67131836 171.57533203 32.47569336 171.80908203 33.30444336 C173.42618652 46.56470018 170.35745788 58.51532392 162.37158203 69.21069336 C155.54766712 77.46542914 146.77047608 83.0847633 136.12158203 84.86694336 C122.8407701 86.05299161 112.00070913 83.80437346 101.30126953 75.70288086 C93.97011673 69.52789552 87.79013524 60.47082522 86.12158203 50.86694336 C85.99730871 47.86449989 86.07740517 44.8709696 86.12158203 41.86694336 C85.47956848 41.77305328 84.83755493 41.67916321 84.17608643 41.58242798 C74.27046343 40.03903519 64.55470936 37.77178478 54.79345703 35.51538086 C52.94979901 35.09194263 51.10606807 34.66882177 49.26226807 34.2460022 C44.4481025 33.14113454 39.63492901 32.03200472 34.82196045 30.92193604 C29.89509098 29.78640876 24.96728016 28.65498196 20.03955078 27.52319336 C10.39931052 25.3084195 0.76011499 23.0891346 -8.87841797 20.86694336 C-8.99028442 21.93442307 -9.10215088 23.00190277 -9.21740723 24.10173035 C-9.93940922 29.84540155 -11.21368527 35.46029802 -12.45458984 41.11035156 C-12.71647598 42.31614365 -12.97836212 43.52193573 -13.2481842 44.76426697 C-13.96250552 48.0495938 -14.67996385 51.33420409 -15.39896584 54.61850762 C-16.15224386 58.06255665 -16.90173906 61.50742893 -17.6517334 64.95219421 C-18.91027185 70.73004993 -20.17152734 76.50730708 -21.43457031 82.28417969 C-22.89470386 88.96259156 -24.35120136 95.64178803 -25.80561972 102.32144672 C-27.3559854 109.44162028 -28.90887215 116.56124222 -30.46256447 123.68069053 C-30.90970197 125.73038046 -31.35638063 127.78016995 -31.80296326 129.82998085 C-32.6340554 133.64392831 -33.46798275 137.4572527 -34.30224609 141.27050781 C-34.54954971 142.4066452 -34.79685333 143.54278259 -35.051651 144.71334839 C-35.27876266 145.7492662 -35.50587433 146.78518402 -35.73986816 147.85249329 C-36.03519817 149.20438735 -36.03519817 149.20438735 -36.33649445 150.58359241 C-36.87841797 152.86694336 -36.87841797 152.86694336 -37.87841797 155.86694336 C-36.74791016 155.89272461 -35.61740234 155.91850586 -34.45263672 155.94506836 C14.95719249 157.50576337 67.58410384 171.70840641 108.12158203 200.86694336 C110.93667796 199.56103453 113.17512708 198.09206862 115.55908203 196.11694336 C127.90132314 186.73959816 141.89008367 183.60944091 157.12158203 184.86694336 C172.62496551 187.21445884 186.11240569 193.60119399 195.62695312 206.33740234 C206.44082781 221.47280687 209.394328 238.71012163 206.82128906 257.00170898 C204.13232033 269.97726767 195.78791202 282.33014948 185.09814453 290.05053711 C182.47296712 291.72754633 179.81829573 293.30941352 177.12158203 294.86694336 C177.33161865 295.91398438 177.33161865 295.91398438 177.54589844 296.98217773 C183.98235273 331.69691792 176.46434216 367.02955305 156.65893555 396.12573242 C122.20129761 445.10956215 66.13693833 473.52890276 8.11767578 483.95703125 C-63.1675361 496.10914576 -142.48181493 486.96582788 -203.15576172 444.96850586 C-206.2598541 442.75195796 -209.29619788 440.4572259 -212.29833984 438.10473633 C-213.73458711 436.97961679 -215.18842184 435.8770393 -216.64404297 434.77709961 C-247.65270007 410.59220387 -269.63206808 377.00919222 -275.34326172 337.78491211 C-277.06433596 323.84336015 -276.28670034 309.67156196 -273.87841797 295.86694336 C-274.50748047 295.4428418 -275.13654297 295.01874023 -275.78466797 294.58178711 C-278.5107647 292.71375396 -281.20048294 290.80335549 -283.87841797 288.86694336 C-284.93222656 288.10897461 -284.93222656 288.10897461 -286.00732422 287.33569336 C-295.72409188 279.64079857 -303.02198584 267.07513611 -304.87841797 254.86694336 C-305.89479369 242.52920709 -306.04771648 230.31669801 -300.87841797 218.86694336 C-300.45431641 217.91948242 -300.03021484 216.97202148 -299.59326172 215.99584961 C-292.73470957 202.22143151 -281.71582414 192.90715629 -267.32763672 187.64428711 C-252.03388811 182.79029034 -236.18907301 183.79018969 -221.62841797 190.55444336 C-215.9615003 193.54615389 -211.4054512 197.36277393 -206.87841797 201.86694336 C-206.31638672 201.48924805 -205.75435547 201.11155273 -205.17529297 200.72241211 C-161.7731686 172.29801471 -111.52277356 157.82723869 -59.87841797 155.86694336 C-59.7006227 154.96155083 -59.7006227 154.96155083 -59.51923561 154.03786755 C-56.06342789 136.48754922 -52.37714722 118.99284856 -48.58935547 101.51147461 C-48.29685569 100.16034682 -48.0043819 98.8092134 -47.71193314 97.45807457 C-46.34233459 91.13162373 -44.97086486 84.80558239 -43.59692132 78.48007375 C-42.02340163 71.23543653 -40.45672097 63.98936199 -38.89551961 56.74206048 C-37.67644224 51.0850686 -36.45116294 45.42944207 -35.22122157 39.77480239 C-34.49120993 36.41786961 -33.76382756 33.06041995 -33.04307175 29.70148659 C-32.24235242 25.97735676 -31.4315185 22.2555673 -30.61816406 18.53417969 C-30.26742073 16.88621399 -30.26742073 16.88621399 -29.90959167 15.20495605 C-26.97382099 1.90080408 -26.97382099 1.90080408 -21.87841797 -2.13305664 C-14.99950417 -4.42602791 -6.87531951 -1.59738448 0 0 Z M-175.05810547 272.53100586 C-182.96261613 282.67456246 -186.09443004 294.19886826 -184.87841797 306.86694336 C-182.44899032 319.18865124 -176.36359524 329.71299428 -165.87841797 336.86694336 C-154.63088751 342.88124784 -143.22257872 344.73352661 -130.63232422 342.21850586 C-121.0140312 339.02605116 -112.55883913 332.24627109 -106.87841797 323.86694336 C-101.25183741 312.54089907 -98.58247824 301.09089028 -102.06591797 288.55444336 C-106.18290424 276.78334176 -112.98107316 267.99855563 -123.87841797 261.86694336 C-142.47757719 253.91918234 -161.1369933 257.8208428 -175.05810547 272.53100586 Z M11.91064453 274.44116211 C4.6610391 284.27086729 1.96016225 294.76759555 3.12158203 306.86694336 C5.59072857 319.39009978 11.71346762 329.40414622 22.12158203 336.86694336 C32.15032774 342.89174539 42.35263572 344.97820998 53.86376953 342.78491211 C66.85281554 339.12492912 76.21272945 332.22726947 82.83251953 320.45678711 C87.79723627 310.48221984 88.85964687 299.45568883 85.99658203 288.61694336 C81.96103207 277.16724346 74.91696033 268.12076781 64.12158203 262.49194336 C44.93879483 253.64574575 25.57306249 258.24765876 11.91064453 274.44116211 Z M-143.87841797 388.86694336 C-146.33638418 392.55389267 -146.68062507 395.58569073 -145.87841797 399.86694336 C-143.9025116 402.59567002 -143.9025116 402.59567002 -140.87841797 404.86694336 C-140.37826172 405.37612305 -139.87810547 405.88530273 -139.36279297 406.40991211 C-117.26726515 428.15708702 -78.31456493 432.91066113 -48.87841797 433.11694336 C-15.95891337 432.85058071 21.40877062 426.46279155 46.12158203 402.86694336 C48.59411674 399.15814129 48.77535153 396.16673505 48.12158203 391.86694336 C46.58610376 388.85996507 45.50271851 387.33116669 42.25048828 386.23803711 C38.9832641 385.65129553 36.77839145 385.59748309 33.68408203 386.86694336 C32.18907716 388.03377643 30.70261229 389.2120284 29.23876953 390.41772461 C7.0358551 408.36309093 -21.9472867 411.09151099 -49.44091797 411.24194336 C-50.25895905 411.24997986 -51.07700012 411.25801636 -51.91983032 411.26629639 C-79.36544026 411.47050121 -108.33808556 406.71172333 -129.76904297 388.44506836 C-134.77822297 384.69745962 -139.14578153 385.08083421 -143.87841797 388.86694336 Z " fill="#FF5621" transform="translate(304.87841796875,13.133056640625)"/>
</svg>
