<?xml version="1.0" encoding="UTF-8"?>
<svg version="1.1" xmlns="http://www.w3.org/2000/svg" width="768" height="723">
<path d="M0 0 C1.02480469 -0.04125 2.04960937 -0.0825 3.10546875 -0.125 C10.69595874 -0.20215873 16.25339577 1.53184472 22.125 6.5 C22.125 7.16 22.125 7.82 22.125 8.5 C22.785 8.5 23.445 8.5 24.125 8.5 C29.58590231 17.755487 33.89317306 27.39447907 38 37.3125 C38.26642303 37.95571198 38.53284607 38.59892395 38.80734253 39.2616272 C39.95330215 42.02992425 41.098711 44.79844833 42.24324036 47.56733704 C45.83587011 56.24344481 49.51465034 64.88267448 53.20709229 73.51669312 C53.97152801 75.30573637 54.73440718 77.09544572 55.49554443 78.88589478 C59.47857469 88.25504054 63.55497966 97.5667894 67.90234375 106.7734375 C68.26164978 107.53557556 68.62095581 108.29771362 68.9911499 109.08294678 C75.45911365 124.56433269 75.45911365 124.56433269 86.59692383 135.54125977 C96.28978293 137.49019568 106.04044782 138.81852229 115.84643555 140.0612793 C120.90334266 140.70270607 125.95746357 141.36539498 131.01171875 142.02734375 C131.99792206 142.15611908 132.98412537 142.28489441 134.00021362 142.41757202 C141.0587814 143.34469759 148.09603716 144.36901317 155.125 145.5 C167.7217872 147.51378655 180.36450069 149.15920995 193.01077271 150.82611084 C206.58678568 152.61613475 220.14988611 154.4729537 233.70211792 156.4347229 C243.8346528 157.90081529 253.97426035 159.29096137 264.125 160.625 C268.79227066 161.24555357 273.45879818 161.87146536 278.125 162.5 C279.11064941 162.63116211 280.09629883 162.76232422 281.11181641 162.89746094 C303.87542874 165.97308499 303.87542874 165.97308499 309.125 172.5 C311.27775286 180.69381127 307.05250067 188.91763763 304.00146484 196.35253906 C302.8684685 199.1285379 301.78747351 201.92324443 300.70751953 204.72021484 C299.84561784 206.95104895 298.97592013 209.17873911 298.10546875 211.40625 C296.21037562 216.26795633 294.3431725 221.14018273 292.47607422 226.01269531 C289.13016499 234.7432489 285.76162555 243.45968783 282.25 252.125 C278.10306773 262.36718913 274.26155055 272.72322066 270.42431641 283.08447266 C267.82855741 290.07621888 265.13196266 297.00773282 262.22583008 303.87792969 C261.27006253 306.15447514 260.35296474 308.43863246 259.46484375 310.7421875 C259.00207031 311.94101562 258.53929687 313.13984375 258.0625 314.375 C257.36447266 316.19644531 257.36447266 316.19644531 256.65234375 318.0546875 C253.91479955 324.22991508 251.09272177 328.22360373 245.125 331.5 C240.23648103 333.11120838 235.53397232 333.91345988 230.421875 334.28125 C229.68329758 334.33958511 228.94472015 334.39792023 228.1837616 334.45802307 C225.74806312 334.647064 223.31168542 334.82416953 220.875 335 C220.02841827 335.06347626 219.18183655 335.12695251 218.30960083 335.19235229 C202.73699822 336.35781691 187.15459963 337.12276784 171.55444336 337.80297852 C157.09235412 338.43492511 142.66043117 339.28549316 128.22253418 340.34637451 C125.91702481 340.51523231 123.61135597 340.68179828 121.30566406 340.84814453 C50.47561886 342.90905627 50.47561886 342.90905627 -12.15234375 371.24609375 C-14.875 373.5 -14.875 373.5 -16.875 373.5 C-17.205 374.49 -17.535 375.48 -17.875 376.5 C-19.37109375 377.9375 -19.37109375 377.9375 -21.3125 379.5 C-40.88668913 396.16261619 -54.29472284 419.84536226 -60.875 444.5 C-61.06723145 445.20640625 -61.25946289 445.9128125 -61.45751953 446.640625 C-70.31443407 479.94202474 -66.02782642 516.56322892 -49.00634766 546.63476562 C-45.77293551 551.96563934 -41.91251602 556.76381232 -37.875 561.5 C-37.33746094 562.15097656 -36.79992187 562.80195312 -36.24609375 563.47265625 C-21.85454752 579.36723603 1.41218894 589.4945884 22.56640625 590.984375 C43.32881326 591.80748161 65.11103904 586.36024378 80.6875 572 C82.54139555 570.20134895 84.33229334 568.36144541 86.125 566.5 C86.80046875 565.84386719 87.4759375 565.18773437 88.171875 564.51171875 C99.75314852 552.54611093 103.63641348 536.47870279 103.54711914 520.34619141 C103.17803949 506.80036308 98.77975981 494.66847693 88.9375 485.125 C81.51545409 478.99374469 73.59980361 476.8166092 64.05078125 477.17578125 C57.04639516 477.95196823 50.54724035 479.85236542 45.125 484.5 C41.24397597 489.50447836 40.46519168 493.49222074 40.7578125 499.80078125 C41.72306249 506.89639553 44.83903606 510.41011833 50.25 514.9375 C54.29099387 518.41741053 56.55955922 520.8669257 57.20703125 526.234375 C57.03215537 531.06428022 55.9177042 535.33929201 52.79296875 539.10546875 C46.91579249 544.39337668 40.7840845 544.90503634 33.2109375 544.74609375 C22.27894769 543.87430216 12.22746919 538.539448 4.78125 530.53125 C-1.4568551 522.88074374 -5.32143947 515.00848418 -7.875 505.5 C-8.10058594 504.67886719 -8.32617188 503.85773438 -8.55859375 503.01171875 C-12.92702501 484.60405322 -8.42899218 465.32599529 1.01318359 449.27050781 C11.97295675 431.81765869 28.83460078 421.48818284 48.125 415.5 C49.21296875 415.15839844 50.3009375 414.81679688 51.421875 414.46484375 C75.51689457 408.38452778 101.56646403 412.08048284 124.125 421.5 C125.04023437 421.87898438 125.95546875 422.25796875 126.8984375 422.6484375 C151.39084481 433.82458452 168.14080018 457.85107245 177.35400391 482.32617188 C179.34649676 487.94401747 180.7897642 493.69374735 182.125 499.5 C182.44597656 500.87091797 182.44597656 500.87091797 182.7734375 502.26953125 C191.12853676 540.7150967 180.86329208 581.78879562 160.109375 614.48828125 C151.87518828 626.98544259 142.12966994 637.53739845 131.625 648.125 C131.13290039 648.62185303 130.64080078 649.11870605 130.13378906 649.63061523 C123.23225429 656.5 123.23225429 656.5 120.125 656.5 C120.125 657.16 120.125 657.82 120.125 658.5 C117.84843259 660.26487595 115.57419606 661.89508133 113.1875 663.5 C112.46892822 663.98694336 111.75035645 664.47388672 111.01000977 664.97558594 C77.35312697 687.52296108 38.28679575 702.51671258 -2.61328125 702.703125 C-3.61473679 702.70882507 -4.61619232 702.71452515 -5.647995 702.72039795 C-7.75986699 702.72978947 -9.87175326 702.73635846 -11.98364258 702.74023438 C-15.14106428 702.74985846 -18.29781083 702.78090511 -21.45507812 702.8125 C-34.85924979 702.88239577 -47.67793104 701.82645673 -60.875 699.5 C-61.96707764 699.31711426 -63.05915527 699.13422852 -64.18432617 698.94580078 C-76.29018352 696.80365231 -87.97808211 693.37583695 -99.625 689.5 C-100.874021 689.08484131 -102.12304199 688.66968262 -103.40991211 688.24194336 C-110.78272734 685.72428805 -117.84153215 682.84236195 -124.875 679.5 C-126.29566786 678.85670246 -127.71746269 678.21588509 -129.140625 677.578125 C-138.13247167 673.47914503 -146.62954094 668.91771938 -154.99804688 663.66650391 C-156.89657892 662.48658896 -158.81233294 661.34037086 -160.734375 660.19921875 C-170.80416357 654.15584787 -179.99256591 647.2136161 -189.13598633 639.85351562 C-190.66312133 638.6649102 -192.26483236 637.57344509 -193.875 636.5 C-193.875 635.84 -193.875 635.18 -193.875 634.5 C-194.41898437 634.273125 -194.96296875 634.04625 -195.5234375 633.8125 C-198.57027971 632.11193691 -200.97268056 629.87213673 -203.5 627.5 C-204.02634033 627.01015625 -204.55268066 626.5203125 -205.0949707 626.015625 C-213.67599483 617.9868386 -221.64200302 609.77940588 -228.875 600.5 C-229.32601074 599.93071777 -229.77702148 599.36143555 -230.24169922 598.77490234 C-262.70696058 557.66836247 -280.84623335 507.85642116 -288.875 456.5 C-289.04435059 455.47221436 -289.21370117 454.44442871 -289.38818359 453.38549805 C-292.52933481 433.93340143 -293.06394951 414.29173405 -293.0625 394.625 C-293.06340637 393.83038361 -293.06431274 393.03576721 -293.06524658 392.21707153 C-293.0639157 381.93614288 -292.69743084 371.74962715 -291.875 361.5 C-292.59409546 361.65919922 -293.31319092 361.81839844 -294.05407715 361.98242188 C-296.75049869 362.47715671 -299.27300428 362.68633488 -302.00976562 362.78125 C-303.50787781 362.83635742 -303.50787781 362.83635742 -305.03625488 362.89257812 C-306.64252747 362.94575195 -306.64252747 362.94575195 -308.28125 363 C-309.39753784 363.04060547 -310.51382568 363.08121094 -311.66394043 363.12304688 C-315.23416834 363.25254281 -318.80455261 363.37671506 -322.375 363.5 C-325.91686095 363.62376691 -329.4586616 363.74878677 -333.00036621 363.87695312 C-335.20087336 363.95645247 -337.4014729 364.03345159 -339.60217285 364.10742188 C-346.04698838 364.33865331 -352.45498693 364.76181155 -358.8828125 365.27938843 C-365.02152034 365.73199041 -371.16208413 365.76309943 -377.31494141 365.79516602 C-378.86223427 365.80677644 -380.40948438 365.82736824 -381.95654297 365.85668945 C-400.89975069 366.21339408 -400.89975069 366.21339408 -408.25 359.25 C-415.35739823 347.2220953 -416.44605763 331.78214505 -418.75 318.1875 C-418.87817108 317.43699371 -419.00634216 316.68648743 -419.13839722 315.91323853 C-421.25869926 303.48532793 -423.19696441 291.03510527 -425.05029297 278.56494141 C-426.393628 269.54676793 -427.84740383 260.55147287 -429.375 251.5625 C-431.30747002 240.17367925 -433.03792232 228.76644453 -434.6875 217.33425903 C-436.12809176 207.36702409 -437.68511557 197.42873112 -439.375 187.5 C-441.30429081 176.15863382 -443.03910214 164.80033746 -444.68548584 153.41546631 C-446.10183581 143.63035848 -447.5888943 133.86066013 -449.1781311 124.1020813 C-449.49673921 122.14502945 -449.81320011 120.18762843 -450.12963867 118.23022461 C-451.02071777 112.72326286 -451.92108685 107.21853156 -452.85546875 101.71875 C-454.16584229 93.826326 -455.1489043 86.07238989 -455.25 78.0625 C-455.27090698 77.02343506 -455.27090698 77.02343506 -455.29223633 75.96337891 C-455.25092298 71.65713301 -454.58154231 68.87399279 -451.875 65.5 C-448.20200075 62.57569364 -443.40787939 63.19986731 -438.9375 63.25 C-438.04345459 63.25749268 -437.14940918 63.26498535 -436.22827148 63.27270508 C-416.71136312 63.57832371 -397.39105918 66.70309216 -378.08970642 69.37091064 C-371.20649314 70.32084461 -364.32060525 71.2499097 -357.43359375 72.171875 C-356.36247345 72.31530334 -355.29135315 72.45873169 -354.18777466 72.60650635 C-351.9892786 72.90088225 -349.7907821 73.19525477 -347.59228516 73.48962402 C-329.80809696 75.8727572 -312.03054909 78.29780613 -294.26217651 80.79608154 C-282.93934679 82.38751721 -271.61271226 83.94770722 -260.28125 85.4765625 C-259.01473602 85.64746902 -257.74822205 85.81837555 -256.44332886 85.99446106 C-251.28572909 86.69012282 -246.12808586 87.38545777 -240.97027588 88.07955933 C-216.65869008 91.35361634 -216.65869008 91.35361634 -204.8359375 93.12109375 C-203.62500175 93.30201317 -203.62500175 93.30201317 -202.38960266 93.48658752 C-198.81326105 94.0234553 -195.23858515 94.56929515 -191.66577148 95.12915039 C-180.91580551 97.37877736 -180.91580551 97.37877736 -170.8828125 94.5859375 C-169.93148438 93.69132812 -168.98015625 92.79671875 -168 91.875 C-166.87564337 90.85707844 -165.74784582 89.84294861 -164.6171875 88.83203125 C-163.71758301 88.01919678 -163.71758301 88.01919678 -162.79980469 87.18994141 C-159.35765923 84.16780406 -155.74483189 81.36727811 -152.125 78.5625 C-151.36356689 77.97227051 -150.60213379 77.38204102 -149.81762695 76.77392578 C-137.2502829 67.10755135 -124.16599208 58.13849778 -110.875 49.5 C-110.16150391 49.03625977 -109.44800781 48.57251953 -108.71289062 48.09472656 C-82.91917705 31.40795507 -56.13124475 16.13905263 -27.375 5.1875 C-26.74053955 4.94483398 -26.1060791 4.70216797 -25.45239258 4.45214844 C-16.77701486 1.22950714 -9.20239155 0.09190903 0 0 Z " fill="#36B470" transform="translate(456.875,-0.5)"/>
</svg>
