<?xml version="1.0" encoding="UTF-8"?>
<svg version="1.1" xmlns="http://www.w3.org/2000/svg" width="740" height="740">
<path d="M0 0 C244.2 0 488.4 0 740 0 C740 244.2 740 488.4 740 740 C495.8 740 251.6 740 0 740 C0 495.8 0 251.6 0 0 Z " fill="#000000" transform="translate(0,0)"/>
<path d="M0 0 C15.76832207 -0.25730818 31.53607481 -0.45110254 47.30597687 -0.56993389 C54.62885335 -0.62658443 61.95042332 -0.70376911 69.27246094 -0.82983398 C75.65674017 -0.93970061 82.04007319 -1.01049146 88.42527151 -1.03497344 C91.80479214 -1.04928006 95.18160677 -1.08272571 98.56025696 -1.16303062 C102.33932278 -1.24301335 106.11280091 -1.25387661 109.89257812 -1.2487793 C111.56061996 -1.30810135 111.56061996 -1.30810135 113.26235962 -1.36862183 C118.08341436 -1.29835777 120.86705529 -1.10750075 124.40220642 2.34825706 C126.46665101 5.15303716 128.2546769 7.98833065 130 11 C131.1570873 12.75634851 132.32254413 14.50724104 133.5 16.25 C134.48419922 17.74080078 134.48419922 17.74080078 135.48828125 19.26171875 C138.81240977 24.24720876 142.25910356 29.14846511 145.6875 34.0625 C151.18962464 41.94989474 156.65566449 49.85949158 162.07177734 57.80615234 C165.61210909 62.9926463 169.19286134 68.14937255 172.79101562 73.29589844 C179.80636924 83.33090426 186.68911196 93.44104504 193.42114258 103.66870117 C197.16817633 109.34064503 201.05409154 114.87680037 205.07617188 120.35693359 C207.96661648 124.32799366 210.73810177 128.37643764 213.5 132.4375 C214.05389404 133.24936768 214.60778809 134.06123535 215.1784668 134.89770508 C219.49637571 141.23596037 223.77238292 147.60109923 228 154 C231.81488941 152.48601922 233.63076629 150.27002932 236.125 147.0625 C239.29541471 143.07609331 242.54377896 139.2415477 246 135.5 C250.11378909 131.0301488 253.97087297 126.40955107 257.78515625 121.68359375 C259.95632827 119.05291443 262.20241357 116.52057576 264.5 114 C267.61458668 110.58260628 270.5918662 107.0947765 273.5 103.5 C277.11032442 99.03723787 280.88427929 94.77280467 284.75 90.53125 C287.07862053 87.9115519 289.29562947 85.2248469 291.5 82.5 C295.11149134 78.03579543 298.88660694 73.76997886 302.75390625 69.52734375 C305.06187598 66.93037607 307.25555863 64.26595987 309.4375 61.5625 C313.29825137 56.788597 317.37437075 52.26611572 321.53125 47.75 C323.94378104 45.06262366 326.2325621 42.31034556 328.5 39.5 C332.33835414 34.74260332 336.39622359 30.24216082 340.53515625 25.74609375 C342.92707297 23.08124834 345.19254884 20.35168175 347.4375 17.5625 C348.13963623 16.71848633 348.84177246 15.87447266 349.56518555 15.00488281 C351.1822566 13.00920342 352.73353684 10.95829998 354.21240234 8.8581543 C361.04812044 -0.00608267 361.04812044 -0.00608267 367.17114258 -0.96850586 C371.86178235 -1.3222659 376.50152186 -1.05265889 381.1875 -0.75 C382.82336982 -0.68968247 384.45945562 -0.6349514 386.09570312 -0.5859375 C390.06922186 -0.45489579 394.03217829 -0.24868629 398 0 C396.22499817 3.80126424 393.80961159 6.5494739 390.9375 9.5625 C386.47003401 14.33493249 382.28097607 19.25779129 378.1796875 24.3515625 C376.02242601 26.97275119 373.78689 29.49154281 371.5 32 C368.40444804 35.39598682 365.44848793 38.86171531 362.5625 42.4375 C359.48663412 46.24087503 356.31246834 49.90082652 353 53.5 C348.98025464 57.87170463 345.20011805 62.37786886 341.46875 66.99609375 C337.51619293 71.80545512 333.41163446 76.48108896 329.32421875 81.17578125 C326.19707968 84.76767945 323.09481234 88.38024351 320 92 C315.30794492 97.48477318 310.58696014 102.94376326 305.85546875 108.39453125 C302.22167405 112.58336858 298.60493818 116.78631236 295 121 C290.85140131 125.84915361 286.68325656 130.68071453 282.5 135.5 C276.81022287 142.05588859 271.15352509 148.63941715 265.51025391 155.23535156 C262.88370156 158.3043332 260.25416553 161.3707571 257.625 164.4375 C256.67967432 165.54035328 255.73436137 166.64321748 254.7890625 167.74609375 C251.859375 171.1640625 248.9296875 174.58203125 246 178 C247.58576158 182.77561726 250.26040086 186.41439643 253.1875 190.4375 C257.96793234 197.10586728 262.64489104 203.83438485 267.25 210.625 C272.40917275 218.22248897 277.61747843 225.78274736 282.875 233.3125 C289.20285832 242.37852227 295.43656931 251.50500242 301.63964844 260.65673828 C307.07316658 268.66278481 312.58266932 276.6131633 318.12109375 284.546875 C322.62332874 291.00274253 327.07638887 297.49004287 331.5 304 C337.3247536 312.57123552 343.22138241 321.0898508 349.14916992 329.59008789 C354.9892721 337.96973774 360.76072722 346.39491858 366.51806641 354.83154297 C368.83795075 358.22614144 371.16875003 361.61320128 373.5 365 C377.50967855 370.82673573 381.50746231 376.66150698 385.5 382.5 C387.1413228 384.89900518 388.78278268 387.29791648 390.42431641 389.69677734 C391.44520032 391.18903313 392.46573064 392.68153091 393.48583984 394.17431641 C394.88501775 396.2213237 396.28574199 398.26725878 397.6875 400.3125 C398.12811768 400.95590332 398.56873535 401.59930664 399.02270508 402.26220703 C401.28110514 405.54692493 403.56945236 408.80565817 405.90625 412.03515625 C406.60681519 413.00424927 406.60681519 413.00424927 407.3215332 413.99291992 C408.2114034 415.21901632 409.10556985 416.44200966 410.00463867 417.66137695 C413 421.78191182 413 421.78191182 413 424 C397.28378272 424.35127869 381.56863412 424.61532844 365.84945965 424.77718258 C358.54958642 424.85435347 351.25215947 424.95943404 343.95385742 425.1315918 C337.58821913 425.28167688 331.22435242 425.37800133 324.85699397 425.41132742 C321.48807395 425.43079774 318.1242187 425.47610041 314.75693321 425.58595085 C294.27540353 426.18049865 294.27540353 426.18049865 288.81402969 422.54475784 C285.28670564 419.1208111 282.95452888 415.25195872 280.88073158 410.82512093 C279.61577757 408.20378421 277.97879534 405.8799535 276.3125 403.5 C275.68085938 402.53835938 275.04921875 401.57671875 274.3984375 400.5859375 C271.16394691 395.70688814 267.78839471 390.92440484 264.4375 386.125 C258.97747442 378.29989907 253.55522669 370.45122252 248.1875 362.5625 C247.56214355 361.643479 246.93678711 360.72445801 246.29248047 359.77758789 C245.08326736 358.00020764 243.87411775 356.22278419 242.66503906 354.4453125 C235.92336653 344.54434591 229.09908535 334.70187752 222.25 324.875 C214.99218817 314.45989346 207.83134819 303.98097024 200.69140625 293.48486328 C198.19616409 289.81907593 195.69556154 286.15702851 193.1875 282.5 C192.75421387 281.86763428 192.32092773 281.23526855 191.87451172 280.58374023 C189.65267573 277.35454283 187.39930571 274.15226772 185.1015625 270.9765625 C184.63339111 270.32880859 184.16521973 269.68105469 183.68286133 269.01367188 C182.79143529 267.78508256 181.89565861 266.55963424 180.99487305 265.33789062 C178 261.21817976 178 261.21817976 178 259 C172.96591903 262.74329097 169.32817853 267.14962888 165.421875 272.0390625 C163.03684093 274.95495899 160.55411384 277.73172134 158 280.5 C153.88621091 284.9698512 150.02912703 289.59044893 146.21484375 294.31640625 C143.33519113 297.80550916 140.29306124 301.12996921 137.24609375 304.47265625 C134.93812402 307.06962393 132.74444137 309.73404013 130.5625 312.4375 C126.70174863 317.211403 122.62562925 321.73388428 118.46875 326.25 C116.05621896 328.93737634 113.7674379 331.68965444 111.5 334.5 C108.44651321 338.28460334 105.29331699 341.92207537 102 345.5 C97.98025464 349.87170463 94.20011805 354.37786886 90.46875 358.99609375 C86.52146376 363.79904172 82.42264183 368.46854893 78.33984375 373.15625 C75.11945435 376.85487799 71.93287356 380.58159553 68.75 384.3125 C65.32573395 388.32359256 61.86272725 392.28655706 58.3125 396.1875 C54.4720005 400.41550936 50.87026059 404.80406128 47.28125 409.24609375 C44.22064752 412.94082791 41.00085811 416.47649944 37.75 420.00390625 C35.95218021 421.88450675 35.95218021 421.88450675 35 424 C23.12 424 11.24 424 -1 424 C2.75946917 418.98737444 6.46841107 414.14682087 10.5625 409.4375 C11.33013672 408.54804687 11.33013672 408.54804687 12.11328125 407.640625 C13.7393878 405.75797252 15.36929831 403.87867296 17 402 C18.08210563 400.75136654 19.16413701 399.50266873 20.24609375 398.25390625 C21.87710921 396.37196533 23.50842623 394.49028978 25.140625 392.609375 C30.78943961 386.09773429 36.39636671 379.55051786 42 373 C48.68901674 365.18069397 55.39748756 357.37934454 62.14208984 349.60791016 C66.79045333 344.24889809 71.41199753 338.8673579 76.0234375 333.4765625 C78.04504983 331.11334439 80.07146437 328.75436957 82.1015625 326.3984375 C86.65585995 321.10830227 91.18037693 315.80976829 95.5625 310.375 C99.18116064 305.91220333 103.00982137 301.67958819 106.91870117 297.47338867 C110.64316191 293.4440165 114.11185875 289.25397625 117.5546875 284.984375 C124.05665418 277.04906743 130.8485655 269.33916486 137.75 261.75 C141.56586921 257.54418795 145.14422187 253.1761913 148.71484375 248.76171875 C152.33802152 244.38293809 156.15819309 240.18693378 160 236 C158.69600186 232.38061005 157.14321916 229.61352971 154.8125 226.5625 C150.61514159 220.91514505 146.6400255 215.1334921 142.6875 209.3125 C142.03531494 208.3527124 141.38312988 207.3929248 140.71118164 206.40405273 C139.41255326 204.49265375 138.11412834 202.58111651 136.81591797 200.66943359 C132.99939741 195.05907654 129.14651424 189.47373227 125.29736328 183.88574219 C123.98630042 181.9800874 122.67828351 180.07237578 121.37109375 178.1640625 C117.52598311 172.55440996 113.67596715 166.94963709 109.7578125 161.390625 C102.57079941 151.19159725 95.54187375 140.90635658 88.6809082 130.484375 C84.87073076 124.71772627 80.92481959 119.08367596 76.83496094 113.51196289 C74.42876735 110.21801321 72.11015485 106.87013615 69.8125 103.5 C69.35746094 102.83548828 68.90242188 102.17097656 68.43359375 101.48632812 C66.95422181 99.3252456 65.47708139 97.16264859 64 95 C62.93114365 93.4373946 61.86212965 91.87489703 60.79296875 90.3125 C59.14073899 87.89798648 57.48863848 85.4833856 55.8371582 83.06835938 C51.95162568 77.38698283 48.05569227 71.71286452 44.15307617 66.04321289 C41.7585686 62.5629889 39.36948565 59.07918605 36.98828125 55.58984375 C30.99075154 46.80235345 24.95578685 38.04263405 18.875 29.3125 C18.20251221 28.34602539 17.53002441 27.37955078 16.8371582 26.38378906 C13.74297338 21.9371016 10.64530969 17.49295702 7.5390625 13.0546875 C6.52581814 11.59911391 5.51278208 10.14339528 4.5 8.6875 C4.03706543 8.02983643 3.57413086 7.37217285 3.09716797 6.69458008 C0 2.22739488 0 2.22739488 0 0 Z " fill="#FBFBFB" transform="translate(164,158)"/>
<path d="M0 0 C7.52457048 -0.30540812 15.04753447 -0.51485594 22.5769043 -0.65917969 C25.13512886 -0.71936179 27.69294342 -0.80113429 30.24975586 -0.90527344 C52.70321562 -1.79659583 52.70321562 -1.79659583 57.59912109 2.52905273 C59.9252752 5.6156163 61.46375429 8.46649757 63 12 C64.21777864 13.8754864 65.46399121 15.73312431 66.75 17.5625 C67.40226562 18.55378906 68.05453125 19.54507813 68.7265625 20.56640625 C76.5073906 32.37143639 84.64291411 43.94469018 92.76586914 55.51538086 C98.3706533 63.50812157 103.88390427 71.56179613 109.38232422 79.62792969 C112.12569203 83.65065254 114.87538256 87.66904741 117.625 91.6875 C118.16503662 92.47688965 118.70507324 93.2662793 119.26147461 94.07958984 C124.04946248 101.07647089 128.85113574 108.06388572 133.65722656 115.04833984 C135.93908519 118.36491764 138.21945755 121.6825171 140.5 125 C141.41665976 126.33333808 142.33332642 127.66667142 143.25 129 C148.75 137 148.75 137 150.12426758 138.99902344 C151.04326519 140.33568793 151.96237371 141.67227618 152.8815918 143.00878906 C155.13849929 146.29054735 157.39362263 149.57349876 159.64453125 152.859375 C164.59587567 160.08228763 169.58952147 167.27296464 174.625 174.4375 C180.73451778 183.13464801 186.71569272 191.91517701 192.67773438 200.71386719 C197.10784376 207.24276596 201.5853149 213.73436186 206.125 220.1875 C214.17646119 231.63504245 222.03267227 243.21348653 229.89550781 254.79101562 C237.10411929 265.40131843 244.35764922 275.97431771 251.73510742 286.46801758 C256.64300528 293.46072275 261.45665566 300.51509119 266.25610352 307.58251953 C270.76659142 314.21555583 275.34043791 320.80175669 279.9375 327.375 C285.65668164 335.56326807 291.27222565 343.81490387 296.8125 352.125 C297.82654907 353.64552979 297.82654907 353.64552979 298.86108398 355.19677734 C301.66482448 359.41834899 304.40195843 363.64833053 307 368 C299.3146786 368.30507922 291.63092344 368.51472123 283.94091797 368.65917969 C281.32736884 368.71941016 278.71422217 368.80121851 276.10205078 368.90527344 C255.01196097 369.72415016 255.01196097 369.72415016 250.09292603 366.9083252 C246.86502743 363.86147433 245.47476452 360.09152947 244 356 C242.64901475 353.7929333 242.64901475 353.7929333 241.19921875 351.890625 C240.57877686 350.98993286 240.57877686 350.98993286 239.94580078 350.07104492 C239.53056152 349.4701001 239.11532227 348.86915527 238.6875 348.25 C237.74087002 346.87631269 236.79425589 345.50261447 235.84765625 344.12890625 C235.13826904 343.10047607 235.13826904 343.10047607 234.41455078 342.05126953 C232.1485448 338.76528709 229.88653637 335.4765596 227.625 332.1875 C227.17664795 331.53555664 226.7282959 330.88361328 226.26635742 330.21191406 C222.66982445 324.97990103 219.08391341 319.74066291 215.5 314.5 C213.33361786 311.33313858 211.16691014 308.16650015 209 305 C208.29641357 303.97156982 208.29641357 303.97156982 207.57861328 302.92236328 C202.18291447 295.03963008 196.73967986 287.19259654 191.25 279.375 C185.67670298 271.43627871 180.19333781 263.44003772 174.74267578 255.41674805 C170.24799478 248.80879263 165.69977553 242.24020804 161.125 235.6875 C153.27652149 224.44131599 145.57019417 213.10099692 137.87011719 201.75292969 C131.40720042 192.23911122 124.85836373 182.78826728 118.25 173.375 C111.31084152 163.48937691 104.50993151 153.51233876 97.71923828 143.52441406 C93.93655709 137.97017897 90.12234457 132.437592 86.31054688 126.90332031 C84.03844939 123.60353044 81.76942087 120.30163099 79.5 117 C78.58334714 115.66665718 77.66668049 114.33332383 76.75 113 C60.25 89 60.25 89 58.8762207 87.00170898 C57.95556784 85.66262209 57.03483159 84.32359253 56.11401367 82.98461914 C53.88266308 79.73976998 51.65256052 76.49408198 49.42578125 73.24609375 C44.73835918 66.41277198 40.02710115 59.59691412 35.28833008 52.79907227 C24.75098784 37.6828011 14.32601533 22.49123454 4.0625 7.1875 C3.43335693 6.25357422 3.43335693 6.25357422 2.79150391 5.30078125 C0 1.11774216 0 1.11774216 0 0 Z " fill="#000000" transform="translate(217,186)"/>
<path d="M0 0 C4.17682304 3.69488192 7.11957661 8.26650422 10 13 C10 13.33 10 13.66 10 14 C2.27759732 14.22840228 -5.44393378 14.38588741 -13.16894531 14.49438477 C-15.79590399 14.53961566 -18.42263646 14.60101248 -21.04882812 14.67895508 C-24.82739004 14.78828185 -28.6029565 14.83920076 -32.3828125 14.87890625 C-34.14094772 14.9485836 -34.14094772 14.9485836 -35.93460083 15.01966858 C-43.87531901 15.02457272 -43.87531901 15.02457272 -47.14935303 12.04196167 C-48.79224063 9.71586829 -50.06930105 7.69194905 -51 5 C-50.67 4.01 -50.34 3.02 -50 2 C-48.99421411 3.28716647 -47.99553202 4.57988658 -47 5.875 C-46.443125 6.59429688 -45.88625 7.31359375 -45.3125 8.0546875 C-44 10 -44 10 -44 12 C-27.83 11.67 -11.66 11.34 5 11 C3.35 8.69 1.7 6.38 0 4 C0 2.68 0 1.36 0 0 Z " fill="#111111" transform="translate(514,540)"/>
<path d="M0 0 C0.66 0 1.32 0 2 0 C3.48046875 2.0546875 3.48046875 2.0546875 5.1875 4.875 C8.96302115 10.97811047 13.03283605 16.81782829 17.18408203 22.66894531 C18.43967613 24.44286815 19.68891131 26.22114163 20.9375 28 C21.33952637 28.56444824 21.74155273 29.12889648 22.15576172 29.71044922 C25 33.77311609 25 33.77311609 25 36 C26.98 34.35 28.96 32.7 31 31 C31.66 31.33 32.32 31.66 33 32 C31.02 34.31 29.04 36.62 27 39 C23.25446535 37.75148845 22.89063489 36.67528745 20.8125 33.375 C17.93821999 28.90931072 14.98399398 24.52848904 11.91796875 20.19140625 C11.19311279 19.16418457 10.46825684 18.13696289 9.72143555 17.07861328 C8.24726411 14.9941326 6.76829679 12.91303488 5.28442383 10.83544922 C4.60275146 9.86752441 3.9210791 8.89959961 3.21875 7.90234375 C2.2896582 6.59511353 2.2896582 6.59511353 1.34179688 5.26147461 C0 3 0 3 0 0 Z " fill="#161616" transform="translate(367,274)"/>
<path d="M0 0 C4.84649548 4.66699565 8.5898982 9.23203712 11.87548828 15.07983398 C13.80737672 18.37864045 16.00148458 21.49118274 18.1875 24.625 C18.66292236 25.31142578 19.13834473 25.99785156 19.62817383 26.70507812 C20.6037743 28.11314117 21.58057807 29.52037126 22.55859375 30.92675781 C23.94832213 32.9256693 25.33430496 34.92711413 26.71875 36.9296875 C28.8101439 39.95476102 30.90423208 42.97795441 33 46 C32.34 46.66 31.68 47.32 31 48 C29.67902479 46.06934392 28.35805525 44.13868397 27.03710938 42.20800781 C25.87574416 40.51067847 24.71428398 38.8134141 23.55273438 37.11621094 C20.50561234 32.66360797 17.45998723 28.20999783 14.41796875 23.75390625 C13.84457764 22.91448486 13.27118652 22.07506348 12.68041992 21.21020508 C11.58754226 19.61018645 10.49522646 18.00978384 9.40356445 16.40893555 C8.89913818 15.67070557 8.39471191 14.93247559 7.875 14.171875 C7.39546875 13.46869141 6.9159375 12.76550781 6.421875 12.04101562 C5.02928928 10.04204298 3.58104017 8.09360023 2.125 6.140625 C0 3 0 3 0 0 Z " fill="#141414" transform="translate(421,481)"/>
<path d="M0 0 C4.19293254 3.74622787 7.07821009 8.30265791 10.1875 12.9375 C11.34738254 14.64992501 12.50753992 16.36216389 13.66796875 18.07421875 C14.23435059 18.91259277 14.80073242 19.7509668 15.38427734 20.61474609 C17.56938258 23.8405663 19.78044858 27.04782715 22 30.25 C22.69867188 31.26320313 23.39734375 32.27640625 24.1171875 33.3203125 C25.73978491 35.62965239 27.41858861 37.87775877 29.125 40.125 C29.74375 41.07375 30.3625 42.0225 31 43 C30.67 43.99 30.34 44.98 30 46 C26.25293218 41.4742017 22.91747044 36.69272643 19.5625 31.875 C18.95647949 31.00713867 18.35045898 30.13927734 17.72607422 29.24511719 C11.42430868 20.20437564 5.20113615 11.10996472 -1 2 C-0.67 1.34 -0.34 0.68 0 0 Z " fill="#161616" transform="translate(272,264)"/>
<path d="M0 0 C3.07065838 2.88127857 5.34828689 5.83882857 7.625 9.375 C10.75712466 14.15839489 13.98088845 18.85337529 17.3125 23.5 C17.73289551 24.08700684 18.15329102 24.67401367 18.58642578 25.27880859 C20.28844646 27.64740272 21.98360337 29.98039308 23.85546875 32.21875 C24.23316406 32.8065625 24.61085938 33.394375 25 34 C24.67 34.99 24.34 35.98 24 37 C19.80121337 31.8045783 15.87772065 26.43707241 12 21 C11.52981445 20.34370605 11.05962891 19.68741211 10.57519531 19.01123047 C9.06102717 16.88933164 7.56036732 14.75842972 6.0625 12.625 C5.57773193 11.94719482 5.09296387 11.26938965 4.59350586 10.57104492 C2.16718237 7.08517643 0.39454475 4.34838681 0 0 Z " fill="#151515" transform="translate(428,362)"/>
<path d="M0 0 C0.66 0 1.32 0 2 0 C3.19542478 1.68125012 4.30712843 3.42248083 5.375 5.1875 C7.70819354 9.02647703 10.18361009 12.50436311 13 16 C16.92854904 21.84113212 20.58192451 27.84746411 24 34 C23.01 34.495 23.01 34.495 22 35 C21.58226318 34.38592285 21.16452637 33.7718457 20.73413086 33.13916016 C18.80260484 30.30064047 16.87005741 27.46281757 14.9375 24.625 C14.28072266 23.65949219 13.62394531 22.69398438 12.94726562 21.69921875 C11.9659668 20.25869141 11.9659668 20.25869141 10.96484375 18.7890625 C10.31112793 17.82774414 9.65741211 16.86642578 8.98388672 15.87597656 C7.65689588 13.95228076 6.30927825 12.04265802 4.94189453 10.14746094 C4.3023584 9.2609082 3.66282227 8.37435547 3.00390625 7.4609375 C2.42584229 6.67251465 1.84777832 5.8840918 1.25219727 5.07177734 C0 3 0 3 0 0 Z " fill="#141414" transform="translate(323,210)"/>
<path d="M0 0 C0.66 0 1.32 0 2 0 C3.515625 2.08984375 3.515625 2.08984375 5.25 4.9375 C6.17619141 6.43410156 6.17619141 6.43410156 7.12109375 7.9609375 C7.74113281 8.96382813 8.36117188 9.96671875 9 11 C10.09502788 12.69344448 11.1982951 14.38161103 12.3125 16.0625 C13.01826172 17.13177734 13.01826172 17.13177734 13.73828125 18.22265625 C15.01600381 20.12752065 15.01600381 20.12752065 17 22 C17.92013137 23.12641451 18.8144243 24.27423296 19.6875 25.4375 C20.14511719 26.03433594 20.60273438 26.63117188 21.07421875 27.24609375 C21.53248047 28.11427734 21.53248047 28.11427734 22 29 C21.67 29.99 21.34 30.98 21 32 C0 6.16901408 0 6.16901408 0 0 Z " fill="#131313" transform="translate(399,449)"/>
<path d="M0 0 C2.79872437 2.52788007 4.45773019 4.20411134 5 8 C5.66 8 6.32 8 7 8 C8.4453125 10.01953125 8.4453125 10.01953125 10.125 12.8125 C13.32202453 18.02621301 16.8366729 22.86498313 20.59375 27.6875 C21.0578125 28.450625 21.521875 29.21375 22 30 C21.67 30.99 21.34 31.98 21 33 C17.00072371 28.1988638 13.49790966 23.06552512 9.9375 17.9375 C8.69722427 16.15452365 7.45636016 14.37195642 6.21484375 12.58984375 C5.66948975 11.80472412 5.12413574 11.01960449 4.56225586 10.21069336 C3.03393684 7.98510726 3.03393684 7.98510726 1.29907227 5.96313477 C0 4 0 4 0 0 Z " fill="#171717" transform="translate(300,176)"/>
<path d="M0 0 C3.6348609 1.2116203 3.76942113 1.94665693 5.4375 5.25 C7.28843678 8.89078653 9.43948862 11.82127507 12 15 C13.79734693 17.57302199 15.52416532 20.19113773 17.25 22.8125 C17.70890625 23.50537109 18.1678125 24.19824219 18.640625 24.91210938 C19.76254025 26.60666887 20.88156672 28.30314034 22 30 C21.34 30.66 20.68 31.32 20 32 C19.64284912 31.47680176 19.28569824 30.95360352 18.91772461 30.41455078 C17.85586601 28.85948478 16.79366221 27.30465446 15.73120117 25.75 C14.53397999 23.9979213 13.33752976 22.24531555 12.1418457 20.4921875 C8.53059071 15.20563862 4.87444646 9.96535113 1.07421875 4.8125 C0 3 0 3 0 0 Z " fill="#181818" transform="translate(535,518)"/>
<path d="M0 0 C0.66 0 1.32 0 2 0 C3.48046875 2.0546875 3.48046875 2.0546875 5.1875 4.875 C7.57675347 8.73953055 10.01163591 12.53296136 12.625 16.25 C13.19476563 17.06082031 13.76453125 17.87164062 14.3515625 18.70703125 C15.40896904 20.17787874 16.48564748 21.63516948 17.5859375 23.07421875 C18.7936443 24.66558931 19.90765098 26.32734057 21 28 C20.67 28.99 20.34 29.98 20 31 C15.64594968 25.64275131 11.70909668 20.02685533 7.75 14.375 C7.00492187 13.32570313 6.25984375 12.27640625 5.4921875 11.1953125 C4.78835938 10.18984375 4.08453125 9.184375 3.359375 8.1484375 C2.39209473 6.77437744 2.39209473 6.77437744 1.40527344 5.37255859 C0 3 0 3 0 0 Z " fill="#0F0F0F" transform="translate(315,327)"/>
<path d="M0 0 C3.98562718 3.72322823 6.93322863 7.60953565 9.875 12.1875 C10.74385796 13.51623602 11.61365433 14.84435887 12.484375 16.171875 C12.90783203 16.81962891 13.33128906 17.46738281 13.76757812 18.13476562 C16.42175611 22.15178619 19.21140745 26.07565618 22 30 C21.34 30.66 20.68 31.32 20 32 C19.64284912 31.47680176 19.28569824 30.95360352 18.91772461 30.41455078 C17.85586601 28.85948478 16.79366221 27.30465446 15.73120117 25.75 C14.53397999 23.9979213 13.33752976 22.24531555 12.1418457 20.4921875 C8.53059071 15.20563862 4.87444646 9.96535113 1.07421875 4.8125 C0 3 0 3 0 0 Z " fill="#161616" transform="translate(220,189)"/>
<path d="M0 0 C3.8854018 1.29513393 4.44629478 2.82503954 6.625 6.25 C8.87448051 9.74779558 11.12327068 13.21082336 13.55859375 16.58203125 C13.97608887 17.1637207 14.39358398 17.74541016 14.82373047 18.34472656 C16.01402694 19.99528351 17.21193494 21.6403433 18.41015625 23.28515625 C18.93480469 24.18105469 19.45945312 25.07695312 20 26 C19.67 26.99 19.34 27.98 19 29 C0 3.43382353 0 3.43382353 0 0 Z " fill="#181818" transform="translate(352,306)"/>
<path d="M0 0 C0.99 0.33 1.98 0.66 3 1 C-0.76252181 5.97693807 -4.52912714 10.63557649 -9 15 C-12.02727466 18.30900073 -15.01601407 21.65195479 -18 25 C-18.99 24.67 -19.98 24.34 -21 24 C-20.23816406 23.18917969 -19.47632813 22.37835938 -18.69140625 21.54296875 C-12.1749938 14.56820565 -5.93657414 7.48068307 0 0 Z " fill="#1F1F1F" transform="translate(281,485)"/>
<path d="M0 0 C2.73556822 2.61786957 5.00338632 5.2403383 7.12890625 8.37109375 C7.68900391 9.19287109 8.24910156 10.01464844 8.82617188 10.86132812 C9.39916016 11.71146484 9.97214844 12.56160156 10.5625 13.4375 C11.13935547 14.28376953 11.71621094 15.13003906 12.31054688 16.00195312 C14.98446802 19.94035832 17.61952051 23.87440031 20 28 C19.01 28 18.02 28 17 28 C15.20654297 25.96801758 15.20654297 25.96801758 13.2421875 23.14453125 C12.53449219 22.12939453 11.82679688 21.11425781 11.09765625 20.06835938 C9.99744141 18.45670898 9.99744141 18.45670898 8.875 16.8125 C7.76318359 15.22985352 7.76318359 15.22985352 6.62890625 13.61523438 C0.6469428 4.94849574 0.6469428 4.94849574 0 0 Z " fill="#191919" transform="translate(347,426)"/>
<path d="M0 0 C0.66 0 1.32 0 2 0 C3.33984375 1.87890625 3.33984375 1.87890625 4.9375 4.5625 C8.45653633 10.30801791 12.38315153 15.65121847 16.53100586 20.95922852 C17.76408538 22.58399967 18.89193166 24.28753075 20 26 C19.67 26.99 19.34 27.98 19 29 C15.30807434 25.63207705 12.75581754 21.84914992 10.0625 17.6875 C9.2212438 16.39896075 8.37879854 15.11119702 7.53515625 13.82421875 C6.91664795 12.87554932 6.91664795 12.87554932 6.28564453 11.90771484 C4.97398283 9.9613942 3.58697877 8.08793298 2.18359375 6.20703125 C0 3 0 3 0 0 Z " fill="#141414" transform="translate(347,245)"/>
<path d="M0 0 C0.66 0 1.32 0 2 0 C0.34101366 3.92468768 -2.30763664 6.93488609 -5.0625 10.125 C-5.5469458 10.69178467 -6.0313916 11.25856934 -6.53051758 11.8425293 C-10.93382284 16.97311801 -15.43801674 22.00997881 -20 27 C-20.66 26.67 -21.32 26.34 -22 26 C-21.24976563 25.12859375 -20.49953125 24.2571875 -19.7265625 23.359375 C-18.69261575 22.15632957 -17.65876892 20.95319824 -16.625 19.75 C-16.08568848 19.12335449 -15.54637695 18.49670898 -14.99072266 17.85107422 C-12.3090153 14.72674732 -9.6487358 11.58969942 -7.046875 8.3984375 C-6.59489746 7.84575195 -6.14291992 7.29306641 -5.67724609 6.72363281 C-4.4337874 5.19716721 -3.19718736 3.6651222 -1.9609375 2.1328125 C-1.31382812 1.42898437 -0.66671875 0.72515625 0 0 Z " fill="#161616" transform="translate(550,172)"/>
<path d="M0 0 C2.97665477 3.63663705 5.7104947 7.37945546 8.375 11.25 C8.76421631 11.81485107 9.15343262 12.37970215 9.55444336 12.96166992 C12.75005057 17.60976595 15.89644768 22.28990295 19 27 C18.34 27.66 17.68 28.32 17 29 C16.35933594 28.03320312 15.71867188 27.06640625 15.05859375 26.0703125 C14.18497965 24.75515265 13.31127555 23.44005259 12.4375 22.125 C11.98584473 21.44332764 11.53418945 20.76165527 11.06884766 20.05932617 C7.89868718 15.29284773 4.61378583 10.63221658 1.1796875 6.05078125 C0 4 0 4 0 0 Z " fill="#151515" transform="translate(504,472)"/>
<path d="M0 0 C4.37272899 1.52490087 6.42094718 4.90597845 8.9375 8.5625 C9.37626465 9.18785645 9.8150293 9.81321289 10.26708984 10.45751953 C13.50561155 15.13191013 16.44394673 19.91479928 19 25 C18.34 25.33 17.68 25.66 17 26 C11.22956064 17.3965884 5.50890625 8.77411889 0 0 Z " fill="#181818" transform="translate(335,358)"/>
<path d="M0 0 C17.49 0 34.98 0 53 0 C53 0.99 53 1.98 53 3 C52.34 2.67 51.68 2.34 51 2 C49.36664808 1.88127427 47.72872646 1.82290908 46.09130859 1.79467773 C45.07040131 1.77473251 44.04949402 1.75478729 42.99765015 1.73423767 C41.89240997 1.71752518 40.7871698 1.70081268 39.6484375 1.68359375 C38.5192691 1.66281265 37.39010071 1.64203156 36.22671509 1.62062073 C32.60954028 1.55508665 28.99229119 1.49622226 25.375 1.4375 C22.92707556 1.39431846 20.47915872 1.35070429 18.03125 1.30664062 C12.0209125 1.19940133 6.01050065 1.09764213 0 1 C0 0.67 0 0.34 0 0 Z " fill="#222222" transform="translate(219,187)"/>
<path d="M0 0 C3.91798867 3.58135957 6.80864669 7.72273273 9.8125 12.0625 C10.32748047 12.78244141 10.84246094 13.50238281 11.37304688 14.24414062 C11.85451172 14.93830078 12.33597656 15.63246094 12.83203125 16.34765625 C13.27264893 16.97679932 13.7132666 17.60594238 14.16723633 18.25415039 C15 20 15 20 14 23 C10.26318069 18.29774105 6.59795034 13.54333281 3.0625 8.6875 C2.47597656 7.88699219 1.88945312 7.08648437 1.28515625 6.26171875 C0 4 0 4 0 0 Z " fill="#1A1A1A" transform="translate(164,160)"/>
<path d="M0 0 C3.91802781 3.57286822 6.76903563 7.71623829 9.75 12.0625 C10.25660156 12.78244141 10.76320313 13.50238281 11.28515625 14.24414062 C11.76339844 14.93830078 12.24164063 15.63246094 12.734375 16.34765625 C13.38744629 17.29137085 13.38744629 17.29137085 14.05371094 18.25415039 C15 20 15 20 15 23 C13.29115995 21.37660195 11.62553283 19.70680947 10 18 C10 17.34 10 16.68 10 16 C9.34 16 8.68 16 8 16 C6.5625 13.91796875 6.5625 13.91796875 5 11.1875 C3.39021728 8.39855144 1.78728124 5.68092187 0 3 C0 2.01 0 1.02 0 0 Z " fill="#1B1B1B" transform="translate(302,232)"/>
<path d="M0 0 C0.99 0.33 1.98 0.66 3 1 C2.443125 1.60585938 1.88625 2.21171875 1.3125 2.8359375 C-4.03799629 8.71063781 -9.10991041 14.73748745 -14 21 C-14.33 20.01 -14.66 19.02 -15 18 C-13.33984375 15.546875 -13.33984375 15.546875 -10.9375 12.75 C-9.7 11.29400391 -9.7 11.29400391 -8.4375 9.80859375 C-7.2309375 8.41833984 -7.2309375 8.41833984 -6 7 C-4.81247927 5.6041843 -3.62497528 4.20835436 -2.4375 2.8125 C-1.633125 1.884375 -0.82875 0.95625 0 0 Z " fill="#232323" transform="translate(434,307)"/>
<path d="M0 0 C0.99 0.33 1.98 0.66 3 1 C2.43152344 1.6290625 1.86304688 2.258125 1.27734375 2.90625 C0.11912109 4.19015625 0.11912109 4.19015625 -1.0625 5.5 C-2.29033203 6.85738281 -2.29033203 6.85738281 -3.54296875 8.2421875 C-6.26830144 11.30114597 -8.89801345 14.43090533 -11.4921875 17.6015625 C-13 19 -13 19 -16 19 C-14.77023437 17.57107422 -14.77023437 17.57107422 -13.515625 16.11328125 C-12.42703894 14.84639231 -11.33849976 13.57946309 -10.25 12.3125 C-9.71117187 11.68666016 -9.17234375 11.06082031 -8.6171875 10.41601562 C-5.67847585 6.9934917 -2.79216079 3.5444177 0 0 Z " fill="#1A1A1A" transform="translate(336,421)"/>
<path d="M0 0 C3.97670724 3.59797321 6.77608905 7.83206405 9.75 12.25 C10.25660156 12.99507813 10.76320313 13.74015625 11.28515625 14.5078125 C12.52734756 16.33594311 13.76547582 18.166687 15 20 C14.34 20.66 13.68 21.32 13 22 C10.34074368 18.79055272 8.11704627 15.58269369 6 12 C4.41149144 9.68869962 2.81744053 7.38204416 1.20703125 5.0859375 C0 3 0 3 0 0 Z " fill="#1F1F1F" transform="translate(386,354)"/>
<path d="M0 0 C0.66 0 1.32 0 2 0 C1.690625 0.598125 1.38125 1.19625 1.0625 1.8125 C-0.10209704 4.08956772 -0.10209704 4.08956772 -1 7 C-1.99 7 -2.98 7 -4 7 C-4.25523437 7.56203125 -4.51046875 8.1240625 -4.7734375 8.703125 C-6.15692781 11.29386482 -7.79938583 13.45107845 -9.625 15.75 C-10.25664062 16.54921875 -10.88828125 17.3484375 -11.5390625 18.171875 C-12.02117187 18.77515625 -12.50328125 19.3784375 -13 20 C-13.33 19.01 -13.66 18.02 -14 17 C-12.3046875 14.51171875 -12.3046875 14.51171875 -9.875 11.6875 C-9.04613281 10.71554687 -8.21726562 9.74359375 -7.36328125 8.7421875 C-6.19345703 7.38480469 -6.19345703 7.38480469 -5 6 C-4.01800615 4.77309082 -3.0380868 3.54450992 -2.0625 2.3125 C-1.381875 1.549375 -0.70125 0.78625 0 0 Z " fill="#171717" transform="translate(476,258)"/>
<path d="M0 0 C3.50697095 3.24957859 6.09368873 6.81312173 8.75 10.75 C9.36681641 11.65298828 9.36681641 11.65298828 9.99609375 12.57421875 C11.00123432 14.04686657 12.00115478 15.52307502 13 17 C12.34 17.66 11.68 18.32 11 19 C9.66094733 17.2126038 8.32890934 15.41995047 7 13.625 C6.2575 12.62726563 5.515 11.62953125 4.75 10.6015625 C3 8 3 8 3 6 C2.34 6 1.68 6 1 6 C0.34 4.35 -0.32 2.7 -1 1 C-0.67 0.67 -0.34 0.34 0 0 Z " fill="#1B1B1B" transform="translate(237,266)"/>
<path d="M0 0 C0.66 0 1.32 0 2 0 C3.75638053 2.38535464 5.39346452 4.76675516 7 7.25 C7.45117188 7.93191406 7.90234375 8.61382812 8.3671875 9.31640625 C10.4416478 12.47719635 12.35313977 15.59160091 14 19 C13.34 19.33 12.68 19.66 12 20 C9.99254745 17.04666001 7.99533174 14.08653968 6 11.125 C5.42765625 10.28324219 4.8553125 9.44148438 4.265625 8.57421875 C3.72421875 7.76855469 3.1828125 6.96289062 2.625 6.1328125 C2.12226563 5.38918457 1.61953125 4.64555664 1.1015625 3.87939453 C0 2 0 2 0 0 Z " fill="#141414" transform="translate(481,440)"/>
<path d="M0 0 C3.27934649 3.06515494 5.75602093 6.33538684 8.25 10.0625 C9.30960937 11.62677734 9.30960937 11.62677734 10.390625 13.22265625 C12 16 12 16 12 19 C8.29394681 15.50164156 5.47800508 11.99149936 2.6875 7.6875 C1.99011719 6.61886719 1.29273438 5.55023438 0.57421875 4.44921875 C0.05472656 3.64097656 -0.46476562 2.83273437 -1 2 C-0.67 1.34 -0.34 0.68 0 0 Z " fill="#171717" transform="translate(373,335)"/>
<path d="M0 0 C0.33 0.99 0.66 1.98 1 3 C-0.1796875 4.71875 -0.1796875 4.71875 -1.875 6.5 C-4.05018304 8.80670574 -4.97333496 9.92000488 -6 13 C-7.62890625 14.38671875 -7.62890625 14.38671875 -9.5625 15.6875 C-10.52349609 16.34298828 -10.52349609 16.34298828 -11.50390625 17.01171875 C-12.24447266 17.50091797 -12.24447266 17.50091797 -13 18 C-12.50223488 13.70296641 -9.95315437 11.48575102 -7.0625 8.4375 C-4.46040853 5.67815984 -2.10485922 3.15728883 0 0 Z " fill="#191919" transform="translate(451,287)"/>
<path d="M0 0 C0.66 0 1.32 0 2 0 C3.80817021 2.38322762 5.48044043 4.75782429 7.125 7.25 C7.82689453 8.27287109 7.82689453 8.27287109 8.54296875 9.31640625 C8.98511719 9.98027344 9.42726563 10.64414062 9.8828125 11.328125 C10.28902832 11.9355957 10.69524414 12.54306641 11.11376953 13.16894531 C12 15 12 15 12 19 C9.18067268 15.50759003 6.42878362 11.97647576 3.75 8.375 C2.69039063 6.96347656 2.69039063 6.96347656 1.609375 5.5234375 C0 3 0 3 0 0 Z " fill="#191919" transform="translate(385,429)"/>
<path d="M0 0 C-1.61298564 3.85476229 -4.11513814 6.51633852 -6.9375 9.5625 C-8.25041016 10.98755859 -8.25041016 10.98755859 -9.58984375 12.44140625 C-11.36622676 14.32719372 -13.15032434 16.18695158 -15 18 C-15 14.47134758 -14.46468561 14.00392822 -12.2265625 11.42578125 C-11.6490625 10.75869141 -11.0715625 10.09160156 -10.4765625 9.40429688 C-9.86554688 8.71400391 -9.25453125 8.02371094 -8.625 7.3125 C-8.02171875 6.61060547 -7.4184375 5.90871094 -6.796875 5.18554688 C-2.26141126 0 -2.26141126 0 0 0 Z " fill="#191919" transform="translate(416,286)"/>
<path d="M0 0 C3.50697095 3.24957859 6.09368873 6.81312173 8.75 10.75 C9.36681641 11.65298828 9.36681641 11.65298828 9.99609375 12.57421875 C11.00123432 14.04686657 12.00115478 15.52307502 13 17 C12.34 17.66 11.68 18.32 11 19 C9.34339876 16.77817002 7.69982584 14.54846612 6.0625 12.3125 C5.59392578 11.68666016 5.12535156 11.06082031 4.64257812 10.41601562 C2.14749543 6.9875207 0.39080011 4.3486906 0 0 Z " fill="#151515" transform="translate(280,200)"/>
<path d="M0 0 C0.99 0 1.98 0 3 0 C4.9375 2.44921875 4.9375 2.44921875 7 5.6875 C7.680625 6.74324219 8.36125 7.79898437 9.0625 8.88671875 C10.7359766 11.57575272 12.38315441 14.27662571 14 17 C13.01 17 12.02 17 11 17 C9.6496582 15.54711914 9.6496582 15.54711914 8.30078125 13.53515625 C7.81416016 12.81779297 7.32753906 12.10042969 6.82617188 11.36132812 C6.32666016 10.60271484 5.82714844 9.84410156 5.3125 9.0625 C4.80138672 8.30775391 4.29027344 7.55300781 3.76367188 6.77539062 C0 1.17259471 0 1.17259471 0 0 Z " fill="#181818" transform="translate(438,432)"/>
<path d="M0 0 C0.99 0.33 1.98 0.66 3 1 C-6.41002278 11.55808656 -6.41002278 11.55808656 -11 16 C-11 11.90550719 -9.39563083 10.93669388 -6.625 8 C-4.17025826 5.38160881 -1.99346232 2.99019347 0 0 Z " fill="#161616" transform="translate(501,229)"/>
<path d="M0 0 C18.315 0.495 18.315 0.495 37 1 C36.67 1.66 36.34 2.32 36 3 C24.12 3 12.24 3 0 3 C0 2.01 0 1.02 0 0 Z " fill="#4C4C4C" transform="translate(526,156)"/>
<path d="M0 0 C3.19249477 2.96647745 5.4592987 6.04963636 7.75 9.75 C8.36359375 10.73484375 8.9771875 11.7196875 9.609375 12.734375 C10.29773438 13.85585938 10.29773438 13.85585938 11 15 C10.01 15 9.02 15 8 15 C6.29939257 12.86175784 4.79794342 10.77910139 3.3125 8.5 C2.89677734 7.87996094 2.48105469 7.25992188 2.05273438 6.62109375 C1.02596494 5.08684057 0.01177775 3.54418071 -1 2 C-0.67 1.34 -0.34 0.68 0 0 Z " fill="#1C1C1C" transform="translate(431,548)"/>
<path d="M0 0 C3.19249477 2.96647745 5.4592987 6.04963636 7.75 9.75 C8.36359375 10.73484375 8.9771875 11.7196875 9.609375 12.734375 C10.29773438 13.85585938 10.29773438 13.85585938 11 15 C10.01 15 9.02 15 8 15 C6.29939257 12.86175784 4.79794342 10.77910139 3.3125 8.5 C2.89677734 7.87996094 2.48105469 7.25992187 2.05273438 6.62109375 C1.02596494 5.08684057 0.01177775 3.54418071 -1 2 C-0.67 1.34 -0.34 0.68 0 0 Z " fill="#1E1E1E" transform="translate(417,399)"/>
<path d="M0 0 C3.19249477 2.96647745 5.4592987 6.04963636 7.75 9.75 C8.36359375 10.73484375 8.9771875 11.7196875 9.609375 12.734375 C10.29773438 13.85585938 10.29773438 13.85585938 11 15 C10.34 15.66 9.68 16.32 9 17 C7.6774926 15.11113408 6.36735744 13.21360161 5.0625 11.3125 C4.33160156 10.25675781 3.60070312 9.20101563 2.84765625 8.11328125 C1.14471131 5.24383702 0.38274746 3.27461717 0 0 Z " fill="#1C1C1C" transform="translate(428,362)"/>
<path d="M0 0 C0.66 0 1.32 0 2 0 C3.9453125 2.484375 3.9453125 2.484375 6.125 5.75 C6.84945313 6.81734375 7.57390625 7.8846875 8.3203125 8.984375 C10 12 10 12 10 16 C8.65407903 14.34348188 7.32481269 12.67344761 6 11 C5.47148437 10.33742188 4.94296875 9.67484375 4.3984375 8.9921875 C3.85445313 8.29351562 3.31046875 7.59484375 2.75 6.875 C2.22921875 6.21242188 1.7084375 5.54984375 1.171875 4.8671875 C0 3 0 3 0 0 Z " fill="#151515" transform="translate(415,344)"/>
<path d="M0 0 C2.69881542 2.49121423 5.03977213 5.18583045 7.3125 8.0625 C7.84488281 8.73410156 8.37726562 9.40570312 8.92578125 10.09765625 C9.28027344 10.72542969 9.63476562 11.35320313 10 12 C9.67 12.99 9.34 13.98 9 15 C5.95483798 12.16667533 3.83131399 9.34499689 1.75 5.75 C1.22921875 4.85796875 0.7084375 3.9659375 0.171875 3.046875 C-0.21484375 2.37140625 -0.6015625 1.6959375 -1 1 C-0.67 0.67 -0.34 0.34 0 0 Z " fill="#191919" transform="translate(558,551)"/>
<path d="M0 0 C3.19249477 2.96647745 5.4592987 6.04963636 7.75 9.75 C8.36359375 10.73484375 8.9771875 11.7196875 9.609375 12.734375 C10.29773438 13.85585937 10.29773438 13.85585937 11 15 C9.265625 14.87890625 9.265625 14.87890625 7 14 C4.859375 11.27734375 4.859375 11.27734375 2.75 7.9375 C2.04359375 6.83277344 1.3371875 5.72804687 0.609375 4.58984375 C0.07828125 3.73519531 -0.4528125 2.88054687 -1 2 C-0.67 1.34 -0.34 0.68 0 0 Z " fill="#202020" transform="translate(182,186)"/>
<path d="M0 0 C0.33 0.99 0.66 1.98 1 3 C0.31164062 3.67095703 0.31164062 3.67095703 -0.390625 4.35546875 C-3.83552299 7.74970648 -7.07255085 11.13576712 -10 15 C-10.66 14.67 -11.32 14.34 -12 14 C-9.35691967 9.79064984 -6.63090174 6.44470165 -3 3 C-2.401875 2.401875 -1.80375 1.80375 -1.1875 1.1875 C-0.795625 0.795625 -0.40375 0.40375 0 0 Z " fill="#141414" transform="translate(507,178)"/>
<path d="M0 0 C0.66 0 1.32 0 2 0 C3.65625 2.265625 3.65625 2.265625 5.5 5.25 C6.1084375 6.22453125 6.716875 7.1990625 7.34375 8.203125 C8.66713848 10.43790366 9.88436415 12.65716472 11 15 C10.01 15 9.02 15 8 15 C5.95703125 12.48046875 5.95703125 12.48046875 3.8125 9.1875 C3.09707031 8.10855469 2.38164062 7.02960938 1.64453125 5.91796875 C0 3 0 3 0 0 Z " fill="#181818" transform="translate(399,449)"/>
<path d="M0 0 C3.19249477 2.96647745 5.4592987 6.04963636 7.75 9.75 C8.36359375 10.73484375 8.9771875 11.7196875 9.609375 12.734375 C10.29773438 13.85585938 10.29773438 13.85585938 11 15 C10.01 15 9.02 15 8 15 C5.95703125 12.48046875 5.95703125 12.48046875 3.8125 9.1875 C3.09707031 8.10855469 2.38164062 7.02960938 1.64453125 5.91796875 C0 3 0 3 0 0 Z " fill="#1A1A1A" transform="translate(428,415)"/>
<path d="M0 0 C3.19249477 2.96647745 5.4592987 6.04963636 7.75 9.75 C8.36359375 10.73484375 8.9771875 11.7196875 9.609375 12.734375 C10.29773438 13.85585937 10.29773438 13.85585937 11 15 C10.01 15 9.02 15 8 15 C5.95703125 12.48046875 5.95703125 12.48046875 3.8125 9.1875 C3.09707031 8.10855469 2.38164062 7.02960938 1.64453125 5.91796875 C0 3 0 3 0 0 Z " fill="#1A1A1A" transform="translate(208,224)"/>
<path d="M0 0 C3.19249477 2.96647745 5.4592987 6.04963636 7.75 9.75 C8.36359375 10.73484375 8.9771875 11.7196875 9.609375 12.734375 C10.29773438 13.85585937 10.29773438 13.85585937 11 15 C10.01 15 9.02 15 8 15 C5.95703125 12.734375 5.95703125 12.734375 3.8125 9.75 C3.09707031 8.77546875 2.38164062 7.8009375 1.64453125 6.796875 C0 4 0 4 0 0 Z " fill="#1A1A1A" transform="translate(195,205)"/>
<path d="M0 0 C3.71080883 4.42442592 6.84577733 9.17403931 10 14 C9.01 14 8.02 14 7 14 C4.95703125 11.375 4.95703125 11.375 2.8125 8 C2.44447266 7.42765625 2.07644531 6.8553125 1.69726562 6.265625 C0.78874929 4.84975538 -0.10686477 3.42562203 -1 2 C-0.67 1.34 -0.34 0.68 0 0 Z " fill="#1B1B1B" transform="translate(412,520)"/>
<path d="M0 0 C0.66 0.66 1.32 1.32 2 2 C0.37561031 3.79222332 -1.24948446 5.5837983 -2.875 7.375 C-3.33519531 7.88289063 -3.79539063 8.39078125 -4.26953125 8.9140625 C-6.14601858 10.98091811 -8.02570548 13.02570548 -10 15 C-10 10.84469116 -8.2148551 9.51148232 -5.5625 6.375 C-4.73878906 5.39273437 -3.91507813 4.41046875 -3.06640625 3.3984375 C-1 1 -1 1 0 0 Z " fill="#191919" transform="translate(236,493)"/>
<path d="M0 0 C0.66 0.33 1.32 0.66 2 1 C1.319375 1.9075 0.63875 2.815 -0.0625 3.75 C-2.24123017 6.68599277 -2.24123017 6.68599277 -1.8125 9.1875 C-1.544375 9.785625 -1.27625 10.38375 -1 11 C-0.67 11.99 -0.34 12.98 0 14 C-0.99 14.495 -0.99 14.495 -2 15 C-3.32 13.02 -4.64 11.04 -6 9 C-4.47291037 5.56404834 -2.40072955 2.88087546 0 0 Z " fill="#181818" transform="translate(415,329)"/>
<path d="M0 0 C0.99 0 1.98 0 3 0 C5.04296875 2.625 5.04296875 2.625 7.1875 6 C7.55552734 6.57234375 7.92355469 7.1446875 8.30273438 7.734375 C9.21125071 9.15024462 10.10686477 10.57437797 11 12 C10.01 12 9.02 12 8 12 C4.62132046 8.40334113 2.35910573 4.29694258 0 0 Z " fill="#171717" transform="translate(253,292)"/>
<path d="M0 0 C4.10088936 1.50607883 5.53509554 3.96188878 7.75 7.625 C8.36359375 8.62789062 8.9771875 9.63078125 9.609375 10.6640625 C10.06828125 11.43492187 10.5271875 12.20578125 11 13 C10.34 13.66 9.68 14.32 9 15 C7.68325862 13.06537998 6.37174202 11.12720303 5.0625 9.1875 C4.33160156 8.10855469 3.60070312 7.02960938 2.84765625 5.91796875 C1 3 1 3 0 0 Z " fill="#181818" transform="translate(248,231)"/>
<path d="M0 0 C4.10088936 1.50607883 5.53509554 3.96188878 7.75 7.625 C8.36359375 8.62789063 8.9771875 9.63078125 9.609375 10.6640625 C10.06828125 11.43492187 10.5271875 12.20578125 11 13 C7.99656363 12.67440623 7.09711205 12.11191572 5.078125 9.78515625 C4.17320312 8.43744141 4.17320312 8.43744141 3.25 7.0625 C2.63640625 6.16660156 2.0228125 5.27070313 1.390625 4.34765625 C0 2 0 2 0 0 Z " fill="#1A1A1A" transform="translate(268,313)"/>
<path d="M0 0 C3.92247359 3.69833224 7.1189547 7.42422217 10 12 C9.67 12.99 9.34 13.98 9 15 C6.68672026 12.17265809 4.43279531 9.30405012 2.25 6.375 C1.60804688 5.52035156 1.60804688 5.52035156 0.953125 4.6484375 C0 3 0 3 0 0 Z " fill="#191919" transform="translate(355,385)"/>
<path d="M0 0 C0.66 0.66 1.32 1.32 2 2 C0.38150935 3.83946539 -1.24418831 5.67151417 -2.875 7.5 C-3.33519531 8.02464844 -3.79539062 8.54929688 -4.26953125 9.08984375 C-5.47172076 10.43141755 -6.73245946 11.71999185 -8 13 C-8.66 13 -9.32 13 -10 13 C-8.48446596 9.52224821 -6.4226544 7.0442016 -3.875 4.25 C-3.15054687 3.45078125 -2.42609375 2.6515625 -1.6796875 1.828125 C-0.84824219 0.92320312 -0.84824219 0.92320312 0 0 Z " fill="#181818" transform="translate(493,194)"/>
<path d="M0 0 C0.99 0.33 1.98 0.66 3 1 C1.37561031 2.79222332 -0.24948446 4.5837983 -1.875 6.375 C-2.33519531 6.88289062 -2.79539063 7.39078125 -3.26953125 7.9140625 C-5.14601858 9.98091811 -7.02570548 12.02570548 -9 14 C-8.41827275 10.0479482 -6.44842259 7.77904947 -3.9375 4.75 C-3.20402344 3.85796875 -2.47054687 2.9659375 -1.71484375 2.046875 C-1.14894531 1.37140625 -0.58304688 0.6959375 0 0 Z " fill="#181818" transform="translate(244,528)"/>
<path d="M0 0 C3.58102841 3.38208239 6.56773474 6.69676146 9 11 C8.67 11.99 8.34 12.98 8 14 C4.55131413 9.91266859 1.76206846 5.56194093 -1 1 C-0.67 0.67 -0.34 0.34 0 0 Z " fill="#1A1A1A" transform="translate(305,312)"/>
<path d="M0 0 C3.25519625 3.02268223 5.78310719 6.14096436 8 10 C7.67 10.99 7.34 11.98 7 13 C5.84906075 11.5665848 4.70441965 10.12811091 3.5625 8.6875 C2.92441406 7.88699219 2.28632813 7.08648437 1.62890625 6.26171875 C0 4 0 4 -1 1 C-0.67 0.67 -0.34 0.34 0 0 Z " fill="#1C1C1C" transform="translate(318,255)"/>
<path d="M0 0 C3.59854349 1.1995145 4.18616815 2.27925223 6.25 5.375 C7.06210937 6.56222656 7.06210937 6.56222656 7.890625 7.7734375 C9 10 9 10 8 13 C6.6578508 11.40320196 5.32652885 9.79729803 4 8.1875 C2.88625 6.84751953 2.88625 6.84751953 1.75 5.48046875 C0 3 0 3 0 0 Z " fill="#161616" transform="translate(302,362)"/>
<path d="M0 0 C3.94875582 1.31625194 4.54992713 3.05365398 6.6875 6.5625 C7.31011719 7.57441406 7.93273437 8.58632813 8.57421875 9.62890625 C9.04472656 10.41136719 9.51523437 11.19382812 10 12 C9.01 12 8.02 12 7 12 C5.17578125 9.8828125 5.17578125 9.8828125 3.3125 7.125 C2.37857422 5.76761719 2.37857422 5.76761719 1.42578125 4.3828125 C0 2 0 2 0 0 Z " fill="#1B1B1B" transform="translate(280,330)"/>
<path d="M0 0 C3.9036874 3.46994436 6.36588975 7.55224006 9 12 C8.01 12 7.02 12 6 12 C4.39453125 10.390625 4.39453125 10.390625 2.8125 8.25 C2.01779297 7.20585938 2.01779297 7.20585938 1.20703125 6.140625 C0 4 0 4 0 0 Z " fill="#1D1D1D" transform="translate(442,564)"/>
<path d="M0 0 C0.99 0.33 1.98 0.66 3 1 C-0.3 4.63 -3.6 8.26 -7 12 C-7.33 11.34 -7.66 10.68 -8 10 C-5.36 6.7 -2.72 3.4 0 0 Z " fill="#202020" transform="translate(256,514)"/>
<path d="M0 0 C3.9036874 3.46994436 6.36588975 7.55224006 9 12 C8.01 12 7.02 12 6 12 C3 8.66666667 3 8.66666667 3 6 C2.34 6 1.68 6 1 6 C0.67 4.02 0.34 2.04 0 0 Z " fill="#1B1B1B" transform="translate(398,500)"/>
<path d="M0 0 C3.9036874 3.46994436 6.36588975 7.55224006 9 12 C8.01 12 7.02 12 6 12 C4.39453125 10.13671875 4.39453125 10.13671875 2.8125 7.6875 C2.28269531 6.88699219 1.75289063 6.08648437 1.20703125 5.26171875 C0 3 0 3 0 0 Z " fill="#1C1C1C" transform="translate(461,463)"/>
<path d="M0 0 C0.66 0 1.32 0 2 0 C3.28006797 1.78398614 4.47660351 3.62853906 5.625 5.5 C6.57246094 7.03140625 6.57246094 7.03140625 7.5390625 8.59375 C8.02117187 9.3878125 8.50328125 10.181875 9 11 C8.34 11.66 7.68 12.32 7 13 C5.82479354 11.40207898 4.66008753 9.79643092 3.5 8.1875 C2.8503125 7.29417969 2.200625 6.40085937 1.53125 5.48046875 C0 3 0 3 0 0 Z " fill="#161616" transform="translate(462,412)"/>
<path d="M0 0 C0.99 0 1.98 0 3 0 C4.82421875 2.40625 4.82421875 2.40625 6.6875 5.5 C7.31011719 6.5209375 7.93273437 7.541875 8.57421875 8.59375 C9.04472656 9.3878125 9.51523437 10.181875 10 11 C9.34 11.66 8.68 12.32 8 13 C6.66388095 11.0226631 5.33100742 9.04327287 4 7.0625 C3.6184375 6.49853516 3.236875 5.93457031 2.84375 5.35351562 C0 1.11328125 0 1.11328125 0 0 Z " fill="#171717" transform="translate(288,161)"/>
<path d="M0 0 C3.9036874 3.46994436 6.36588975 7.55224006 9 12 C8.01 12 7.02 12 6 12 C4.39453125 10.13671875 4.39453125 10.13671875 2.8125 7.6875 C2.28269531 6.88699219 1.75289063 6.08648438 1.20703125 5.26171875 C0 3 0 3 0 0 Z " fill="#191919" transform="translate(422,535)"/>
<path d="M0 0 C3.44868587 4.08733141 6.23793154 8.43805907 9 13 C8.01 13 7.02 13 6 13 C4.39453125 11.171875 4.39453125 11.171875 2.8125 8.75 C2.28269531 7.96109375 1.75289062 7.1721875 1.20703125 6.359375 C0 4 0 4 0 0 Z " fill="#1B1B1B" transform="translate(548,536)"/>
<path d="M0 0 C0.99 0 1.98 0 3 0 C4.640625 1.86328125 4.640625 1.86328125 6.25 4.3125 C7.06210937 5.51326172 7.06210937 5.51326172 7.890625 6.73828125 C9 9 9 9 8 12 C6.66081194 10.37982158 5.3288031 8.75370657 4 7.125 C3.2575 6.22007812 2.515 5.31515625 1.75 4.3828125 C0 2 0 2 0 0 Z " fill="#181818" transform="translate(330,275)"/>
<path d="M0 0 C0.99 0.33 1.98 0.66 3 1 C0.03 4.3 -2.94 7.6 -6 11 C-6.33 10.01 -6.66 9.02 -7 8 C-5.56640625 5.95703125 -5.56640625 5.95703125 -3.5625 3.8125 C-2.90378906 3.09707031 -2.24507813 2.38164062 -1.56640625 1.64453125 C-1.04949219 1.10183594 -0.53257812 0.55914062 0 0 Z " fill="#1D1D1D" transform="translate(317,443)"/>
<path d="M0 0 C0.66 0 1.32 0 2 0 C3.54296875 1.86328125 3.54296875 1.86328125 5.1875 4.3125 C5.73792969 5.11300781 6.28835938 5.91351563 6.85546875 6.73828125 C7.23316406 7.48464844 7.61085938 8.23101562 8 9 C7.67 9.99 7.34 10.98 7 12 C5.66104368 10.33784732 4.32869858 8.67036393 3 7 C2.4225 6.29875 1.845 5.5975 1.25 4.875 C0 3 0 3 0 0 Z " fill="#1B1B1B" transform="translate(367,274)"/>
<path d="M0 0 C3.9036874 3.46994436 6.36588975 7.55224006 9 12 C8.01 12 7.02 12 6 12 C4.39453125 10.13671875 4.39453125 10.13671875 2.8125 7.6875 C2.28269531 6.88699219 1.75289063 6.08648437 1.20703125 5.26171875 C0 3 0 3 0 0 Z " fill="#1C1C1C" transform="translate(470,476)"/>
<path d="M0 0 C2.9156164 3.54039134 5.50127818 7.1626772 8 11 C7.01 11 6.02 11 5 11 C3.39453125 9.03125 3.39453125 9.03125 1.8125 6.5 C1.28269531 5.6646875 0.75289063 4.829375 0.20703125 3.96875 C-0.19128906 3.3190625 -0.58960938 2.669375 -1 2 C-0.67 1.34 -0.34 0.68 0 0 Z " fill="#191919" transform="translate(409,387)"/>
<path d="M0 0 C0.33 0.99 0.66 1.98 1 3 C-1.64 5.97 -4.28 8.94 -7 12 C-7.66 11.67 -8.32 11.34 -9 11 C-6.03 7.37 -3.06 3.74 0 0 Z " fill="#1F1F1F" transform="translate(537,187)"/>
<path d="M0 0 C0.66 0.33 1.32 0.66 2 1 C0.4169423 5.2742558 -2.50568404 7.26531794 -6 10 C-6 6.41087588 -5.33563446 5.89142971 -3 3.3125 C-2.443125 2.68988281 -1.88625 2.06726563 -1.3125 1.42578125 C-0.879375 0.95527344 -0.44625 0.48476563 0 0 Z " fill="#161616" transform="translate(232,542)"/>
<path d="M0 0 C3.68006822 3.38168431 5.9785845 6.42521756 8 11 C7.01 11.495 7.01 11.495 6 12 C3.69 8.37 1.38 4.74 -1 1 C-0.67 0.67 -0.34 0.34 0 0 Z " fill="#1C1C1C" transform="translate(471,425)"/>
<path d="M0 0 C0.66 0.66 1.32 1.32 2 2 C0.02 4.31 -1.96 6.62 -4 9 C-4.99 8.01 -5.98 7.02 -7 6 C-4.69 4.02 -2.38 2.04 0 0 Z " fill="#1B1B1B" transform="translate(305,413)"/>
<path d="M0 0 C2.9156164 3.54039134 5.50127818 7.1626772 8 11 C7.01 11 6.02 11 5 11 C3.39453125 9.03125 3.39453125 9.03125 1.8125 6.5 C1.28269531 5.6646875 0.75289063 4.829375 0.20703125 3.96875 C-0.19128906 3.3190625 -0.58960938 2.669375 -1 2 C-0.67 1.34 -0.34 0.68 0 0 Z " fill="#202020" transform="translate(295,350)"/>
<path d="M0 0 C0.66 0 1.32 0 2 0 C3.98 3.63 5.96 7.26 8 11 C7.01 11.495 7.01 11.495 6 12 C4.99157547 10.56839732 3.99352109 9.12948547 3 7.6875 C2.1646875 6.48673828 2.1646875 6.48673828 1.3125 5.26171875 C0 3 0 3 0 0 Z " fill="#1A1A1A" transform="translate(315,327)"/>
<path d="M0 0 C0.66 0 1.32 0 2 0 C3.98 3.63 5.96 7.26 8 11 C7.01 11.495 7.01 11.495 6 12 C4.99157547 10.56839732 3.99352109 9.12948547 3 7.6875 C2.1646875 6.48673828 2.1646875 6.48673828 1.3125 5.26171875 C0 3 0 3 0 0 Z " fill="#191919" transform="translate(323,210)"/>
<path d="M0 0 C0.99 0.33 1.98 0.66 3 1 C0.69 3.97 -1.62 6.94 -4 10 C-5 6 -5 6 -4.00390625 4.296875 C-2.66927083 2.86458333 -1.33463542 1.43229167 0 0 Z " fill="#161616" transform="translate(281,485)"/>
<path d="M0 0 C0.33 0.99 0.66 1.98 1 3 C-0.43359375 5.04296875 -0.43359375 5.04296875 -2.4375 7.1875 C-3.09621094 7.90292969 -3.75492188 8.61835938 -4.43359375 9.35546875 C-4.95050781 9.89816406 -5.46742188 10.44085938 -6 11 C-6.66 10.34 -7.32 9.68 -8 9 C-5.36 6.03 -2.72 3.06 0 0 Z " fill="#1B1B1B" transform="translate(250,477)"/>
<path d="M0 0 C4.20763224 1.5027258 5.8027758 4.23332995 8 8 C8 8.66 8 9.32 8 10 C4.69713914 8.89904638 4.21489099 8.3103981 2.3125 5.5625 C1.65701172 4.63630859 1.65701172 4.63630859 0.98828125 3.69140625 C0 2 0 2 0 0 Z " fill="#1B1B1B" transform="translate(372,464)"/>
<path d="M0 0 C0.66 0.33 1.32 0.66 2 1 C-0.97 4.3 -3.94 7.6 -7 11 C-7.33 10.34 -7.66 9.68 -8 9 C-6.85459775 7.68712379 -5.70866567 6.37470979 -4.5625 5.0625 C-3.92441406 4.33160156 -3.28632812 3.60070312 -2.62890625 2.84765625 C-1.77458541 1.87860647 -0.91348825 0.91348825 0 0 Z " fill="#171717" transform="translate(562,159)"/>
<path d="M0 0 C3.69790046 1.23263349 3.9354846 2.20052451 5.6875 5.5625 C6.12449219 6.38878906 6.56148437 7.21507812 7.01171875 8.06640625 C7.33785156 8.70449219 7.66398438 9.34257813 8 10 C7.01 10.495 7.01 10.495 6 11 C4.9944239 9.54550599 3.99569565 8.08627557 3 6.625 C2.443125 5.81289063 1.88625 5.00078125 1.3125 4.1640625 C0 2 0 2 0 0 Z " fill="#1A1A1A" transform="translate(568,567)"/>
<path d="M0 0 C4.20390632 1.50139512 5.89110738 4.17275043 8 8 C7.67 8.99 7.34 9.98 7 11 C5.82750647 9.54634731 4.66216184 8.08692581 3.5 6.625 C2.52546875 5.40683594 2.52546875 5.40683594 1.53125 4.1640625 C0 2 0 2 0 0 Z " fill="#181818" transform="translate(312,377)"/>
<path d="M0 0 C0.99 0 1.98 0 3 0 C4.421875 1.42578125 4.421875 1.42578125 5.75 3.3125 C6.19859375 3.92738281 6.6471875 4.54226563 7.109375 5.17578125 C8 7 8 7 7 10 C4.3513141 6.80331012 2.06007659 3.60513403 0 0 Z " fill="#1D1D1D" transform="translate(495,462)"/>
<path d="M0 0 C-1.66751148 3.94139078 -4.22710649 6.7892812 -7 10 C-7.33 9.01 -7.66 8.02 -8 7 C-6.85546875 5.17578125 -6.85546875 5.17578125 -5.1875 3.3125 C-4.37345703 2.37857422 -4.37345703 2.37857422 -3.54296875 1.42578125 C-2 0 -2 0 0 0 Z " fill="#1A1A1A" transform="translate(427,318)"/>
<path d="M0 0 C0.66 0 1.32 0 2 0 C1.690625 0.598125 1.38125 1.19625 1.0625 1.8125 C-0.10209704 4.08956772 -0.10209704 4.08956772 -1 7 C-1.99 7 -2.98 7 -4 7 C-4 7.66 -4 8.32 -4 9 C-4.99 8.67 -5.98 8.34 -7 8 C-5.88200014 6.66079162 -4.75538103 5.32877444 -3.625 4 C-2.68527344 2.88625 -2.68527344 2.88625 -1.7265625 1.75 C-1.15679687 1.1725 -0.58703125 0.595 0 0 Z " fill="#1D1D1D" transform="translate(476,258)"/>
<path d="M0 0 C2.96404505 2.80804268 5.44499019 5.18315774 7 9 C6.01 9 5.02 9 4 9 C4 8.34 4 7.68 4 7 C3.34 7 2.68 7 2 7 C0.5393715 4.35261084 0 3.10551666 0 0 Z " fill="#1F1F1F" transform="translate(273,190)"/>
<path d="M0 0 C0.33 0.99 0.66 1.98 1 3 C-0.40445835 5.2636564 -2.1967913 7.0208685 -4 9 C-4.99 8.67 -5.98 8.34 -7 8 C-4.69 5.36 -2.38 2.72 0 0 Z " fill="#282828" transform="translate(218,558)"/>
<path d="M0 0 C3.33557632 2.9905167 5.15083921 5.93184627 7 10 C6.01 10.495 6.01 10.495 5 11 C3.02 7.7 1.04 4.4 -1 1 C-0.67 0.67 -0.34 0.34 0 0 Z " fill="#1C1C1C" transform="translate(516,490)"/>
<path d="M0 0 C2.6486859 3.19668988 4.93992341 6.39486597 7 10 C6.01 10.495 6.01 10.495 5 11 C4.15504811 9.92570402 3.32445142 8.84010798 2.5 7.75 C2.0359375 7.14671875 1.571875 6.5434375 1.09375 5.921875 C0 4 0 4 0 0 Z " fill="#1A1A1A" transform="translate(488,449)"/>
<path d="M0 0 C2.96404505 2.80804268 5.44499019 5.18315774 7 9 C6.01 9 5.02 9 4 9 C0 3.85714286 0 3.85714286 0 0 Z " fill="#212121" transform="translate(401,376)"/>
<path d="M0 0 C0.33 0.99 0.66 1.98 1 3 C-0.40445835 5.2636564 -2.1967913 7.0208685 -4 9 C-4.99 8.67 -5.98 8.34 -7 8 C-4.69 5.36 -2.38 2.72 0 0 Z " fill="#232323" transform="translate(451,287)"/>
<path d="M0 0 C0.99 0 1.98 0 3 0 C3 2 3 2 0.6875 4.5 C-2 7 -2 7 -5 9 C-5 4.66314164 -2.91985986 3.0556673 0 0 Z " fill="#191919" transform="translate(458,279)"/>
<path d="M0 0 C0.66 0.33 1.32 0.66 2 1 C0.02 3.31 -1.96 5.62 -4 8 C-4.99 7.67 -5.98 7.34 -7 7 C-4.69 4.69 -2.38 2.38 0 0 Z " fill="#1E1E1E" transform="translate(206,573)"/>
<path d="M0 0 C2.95929119 2.75520215 5.03681826 5.46627288 7 9 C5.1875 8.8125 5.1875 8.8125 3 8 C0.85802506 5.09303401 0 3.64478912 0 0 Z " fill="#1C1C1C" transform="translate(492,508)"/>
<path d="M0 0 C2.96404505 2.80804268 5.44499019 5.18315774 7 9 C6.01 9 5.02 9 4 9 C0 2.25 0 2.25 0 0 Z " fill="#161616" transform="translate(394,366)"/>
<path d="M0 0 C2.66735273 2.48952921 4.55746343 4.63408134 6 8 C5.01 8 4.02 8 3 8 C1.02 4.535 1.02 4.535 -1 1 C-0.67 0.67 -0.34 0.34 0 0 Z " fill="#1D1D1D" transform="translate(373,335)"/>
<path d="M0 0 C2.40072955 2.88087546 4.47291037 5.56404834 6 9 C2.66476748 7.61990379 0.81392049 6.15049348 -1 3 C-0.67 2.01 -0.34 1.02 0 0 Z " fill="#151515" transform="translate(224,247)"/>
<path d="M0 0 C0.66 0.66 1.32 1.32 2 2 C0.02 4.31 -1.96 6.62 -4 9 C-4.66 8.67 -5.32 8.34 -6 8 C-5.67 7.01 -5.34 6.02 -5 5 C-4.34 5 -3.68 5 -3 5 C-2.5359375 4.0409375 -2.5359375 4.0409375 -2.0625 3.0625 C-1 1 -1 1 0 0 Z " fill="#161616" transform="translate(456,237)"/>
<path d="M0 0 C3.53586014 3.17320782 5.58578031 5.16743695 6 10 C3.66475218 7.74259377 1.81294927 5.7194239 0 3 C0 2.01 0 1.02 0 0 Z " fill="#151515" transform="translate(463,542)"/>
<path d="M0 0 C2.49415272 0.99766109 3.78740335 1.68616685 5.3125 3.9375 C6 6 6 6 5 9 C4.16094435 7.87926138 3.32892169 6.75325453 2.5 5.625 C2.0359375 4.99851562 1.571875 4.37203125 1.09375 3.7265625 C0 2 0 2 0 0 Z " fill="#0F0F0F" transform="translate(542,529)"/>
<path d="M0 0 C0.99 0 1.98 0 3 0 C4.38671875 1.75 4.38671875 1.75 5.6875 4 C6.12449219 4.7425 6.56148438 5.485 7.01171875 6.25 C7.33785156 6.8275 7.66398437 7.405 8 8 C5.48896743 7.62545523 4.32350649 7.41636484 2.734375 5.37109375 C1.82291667 3.58072917 0.91145833 1.79036458 0 0 Z " fill="#1E1E1E" transform="translate(438,432)"/>
<path d="M0 0 C2.96865509 2.54456151 4.3619751 5.48994665 6 9 C5.01 9.495 5.01 9.495 4 10 C0 4.5 0 4.5 0 0 Z " fill="#1A1A1A" transform="translate(348,374)"/>
<path d="M0 0 C2.40072955 2.88087546 4.47291037 5.56404834 6 9 C5.01 9.495 5.01 9.495 4 10 C0 4.5 0 4.5 0 0 Z " fill="#1B1B1B" transform="translate(330,348)"/>
<path d="M0 0 C3.42054006 1.14018002 4.2426201 1.92458518 6 5 C5.578125 7.13671875 5.578125 7.13671875 5 9 C4.16094435 7.87926138 3.32892169 6.75325453 2.5 5.625 C2.0359375 4.99851563 1.571875 4.37203125 1.09375 3.7265625 C0 2 0 2 0 0 Z " fill="#0C0C0C" transform="translate(330,221)"/>
<path d="M0 0 C2.66735273 2.48952921 4.55746343 4.63408134 6 8 C5.01 8 4.02 8 3 8 C1.02 4.535 1.02 4.535 -1 1 C-0.67 0.67 -0.34 0.34 0 0 Z " fill="#1E1E1E" transform="translate(287,210)"/>
<path d="M0 0 C2.40072955 2.88087546 4.47291037 5.56404834 6 9 C5.01 9.495 5.01 9.495 4 10 C0 4.5 0 4.5 0 0 Z " fill="#1A1A1A" transform="translate(456,531)"/>
<path d="M0 0 C0.66 0.66 1.32 1.32 2 2 C0.35 3.98 -1.3 5.96 -3 8 C-3.66 7.34 -4.32 6.68 -5 6 C-4.67 5.01 -4.34 4.02 -4 3 C-3.01 3 -2.02 3 -1 3 C-0.67 2.01 -0.34 1.02 0 0 Z " fill="#161616" transform="translate(210,523)"/>
<path d="M0 0 C2.40072955 2.88087546 4.47291037 5.56404834 6 9 C5.01 9.495 5.01 9.495 4 10 C0 4.5 0 4.5 0 0 Z " fill="#1B1B1B" transform="translate(526,504)"/>
<path d="M0 0 C2.12038635 2.61514317 4.13091744 5.19637616 6 8 C5.01 8 4.02 8 3 8 C1.02 4.535 1.02 4.535 -1 1 C-0.67 0.67 -0.34 0.34 0 0 Z " fill="#1C1C1C" transform="translate(381,475)"/>
<path d="M0 0 C1.32 1.32 2.64 2.64 4 4 C3.34 5.32 2.68 6.64 2 8 C-0.36556709 5.63443291 -0.58244041 4.25696479 -1 1 C-0.67 0.67 -0.34 0.34 0 0 Z " fill="#282828" transform="translate(321,388)"/>
<path d="M0 0 C2.12038635 2.61514317 4.13091744 5.19637616 6 8 C5.01 8 4.02 8 3 8 C1.02 4.535 1.02 4.535 -1 1 C-0.67 0.67 -0.34 0.34 0 0 Z " fill="#1C1C1C" transform="translate(347,297)"/>
<path d="M0 0 C0.66 0 1.32 0 2 0 C3.32 2.64 4.64 5.28 6 8 C5.01 8.495 5.01 8.495 4 9 C0 3.375 0 3.375 0 0 Z " fill="#1B1B1B" transform="translate(347,245)"/>
<path d="M0 0 C0.33 1.32 0.66 2.64 1 4 C-0.65 5.32 -2.3 6.64 -4 8 C-4 4.09161134 -2.49432124 2.88405893 0 0 Z " fill="#222222" transform="translate(224,551)"/>
<path d="M0 0 C3.40424844 1.13474948 4.21653709 1.96811304 6 5 C5.67 5.99 5.34 6.98 5 8 C2.74754119 5.31158141 1.11786042 3.35358125 0 0 Z " fill="#0C0C0C" transform="translate(415,473)"/>
<path d="M0 0 C0.66 0 1.32 0 2 0 C4.1875 2.8125 4.1875 2.8125 6 6 C5.67 6.99 5.34 7.98 5 9 C4.16094435 7.87926138 3.32892169 6.75325453 2.5 5.625 C2.0359375 4.99851562 1.571875 4.37203125 1.09375 3.7265625 C0 2 0 2 0 0 Z " fill="#0D0D0D" transform="translate(342,367)"/>
<path d="M0 0 C4.42857143 5.14285714 4.42857143 5.14285714 5 9 C0.125 4.375 0.125 4.375 -1 1 C-0.67 0.67 -0.34 0.34 0 0 Z " fill="#181818" transform="translate(231,257)"/>
<path d="M0 0 C2.66735273 2.48952921 4.55746343 4.63408134 6 8 C5.01 8.495 5.01 8.495 4 9 C0 3.375 0 3.375 0 0 Z " fill="#191919" transform="translate(421,481)"/>
<path d="M0 0 C3.16115776 1.36983503 3.9927092 1.9890638 6 5 C5.67 5.99 5.34 6.98 5 8 C0 2.25 0 2.25 0 0 Z " fill="#121212" transform="translate(452,452)"/>
<path d="M0 0 C0.66 0 1.32 0 2 0 C3.6875 2.3125 3.6875 2.3125 5 5 C4.67 5.99 4.34 6.98 4 8 C0 3.375 0 3.375 0 0 Z " fill="#131313" transform="translate(385,429)"/>
<path d="M0 0 C1.65 1.65 3.3 3.3 5 5 C4.67 5.99 4.34 6.98 4 8 C0 3.375 0 3.375 0 0 Z " fill="#1D1D1D" transform="translate(371,408)"/>
<path d="M0 0 C3.40424844 1.13474948 4.21653709 1.96811304 6 5 C5.67 5.99 5.34 6.98 5 8 C2.74754119 5.31158141 1.11786042 3.35358125 0 0 Z " fill="#0D0D0D" transform="translate(447,391)"/>
<path d="M0 0 C3 1 3 1 4.6875 4.0625 C5.120625 5.031875 5.55375 6.00125 6 7 C5.01 7.495 5.01 7.495 4 8 C0 2.25 0 2.25 0 0 Z " fill="#0F0F0F" transform="translate(383,298)"/>
<path d="M0 0 C0.66 0 1.32 0 2 0 C0.55746343 3.36591866 -1.33264727 5.51047079 -4 8 C-4 4.06830895 -2.60580385 2.83572772 0 0 Z " fill="#121212" transform="translate(405,296)"/>
<path d="M0 0 C0.66 0.66 1.32 1.32 2 2 C0.35 3.98 -1.3 5.96 -3 8 C-3.66 7.34 -4.32 6.68 -5 6 C-3.35 4.02 -1.7 2.04 0 0 Z " fill="#171717" transform="translate(431,266)"/>
<path d="M0 0 C0.66 0 1.32 0 2 0 C0.79618552 2.49361571 -0.45428722 4.68143083 -2 7 C-2.99 6.67 -3.98 6.34 -5 6 C-3.38405168 3.95880212 -1.7143618 1.95927063 0 0 Z " fill="#1D1D1D" transform="translate(550,172)"/>
</svg>
